<?xml version="1.0" standalone="no"?>
<!DOCTYPE svg PUBLIC "-//W3C//DTD SVG 20010904//EN"
 "http://www.w3.org/TR/2001/REC-SVG-20010904/DTD/svg10.dtd">
<svg version="1.0" xmlns="http://www.w3.org/2000/svg"
 width="1929.000000pt" height="901.000000pt" viewBox="0 0 1929.000000 901.000000"
 preserveAspectRatio="xMidYMid meet">
<metadata>
Created by potrace 1.13, written by Peter Selinger 2001-2015
</metadata>
<g transform="translate(0.000000,901.000000) scale(0.100000,-0.100000)"
fill="#000000" stroke="none">
<path d="M64 8797 c-2 -7 -3 -1005 -1 -2217 3 -2203 3 -2205 25 -2355 71 -489
225 -1000 441 -1460 408 -868 843 -1430 1496 -1935 385 -298 901 -579 1337
-729 l118 -40 112 38 c364 124 740 313 1103 556 726 486 1225 1067 1656 1926
329 659 536 1378 550 1914 2 61 2 1056 1 2213 l-2 2102 -3415 0 c-2785 0
-3417 -2 -3421 -13z m5272 -337 c126 -33 226 -92 330 -195 77 -76 98 -105 137
-185 54 -109 73 -175 82 -287 7 -78 8 -79 44 -100 143 -82 260 -233 321 -413
31 -92 39 -279 16 -383 -48 -215 -204 -412 -401 -507 -111 -53 -199 -73 -325
-73 -128 0 -218 20 -322 71 l-77 38 -65 -33 c-205 -104 -459 -103 -664 1 -267
136 -428 413 -409 706 8 121 25 183 81 296 54 109 152 219 251 284 l65 42 0
63 c0 176 111 400 259 523 193 161 431 215 677 152z m-3748 -111 c122 -13 261
-43 374 -80 l87 -28 58 20 c229 80 456 107 742 90 179 -11 402 -34 444 -47 16
-5 17 -56 17 -891 l0 -885 -26 6 c-51 13 -223 36 -340 46 -297 24 -521 4 -786
-72 l-108 -30 -92 26 c-109 31 -263 63 -368 75 -198 23 -554 2 -777 -45 l-33
-6 0 885 0 885 23 5 c45 12 276 39 392 46 182 12 286 12 393 0z m5147 -3099
c0 -753 -2 -848 -18 -970 -99 -729 -386 -1480 -841 -2197 -371 -587 -909
-1088 -1586 -1478 -224 -130 -585 -296 -760 -350 l-55 -17 -100 37 c-510 191
-1039 503 -1460 863 -127 109 -388 370 -486 487 -391 468 -751 1123 -964 1760
-99 293 -156 527 -207 843 -21 132 -22 169 -25 986 -2 467 -2 855 1 862 5 12
510 14 3253 12 l3248 -3 0 -835z"/>
<path d="M5050 8189 c-80 -15 -183 -74 -239 -135 -57 -62 -74 -91 -102 -172
-29 -83 -30 -82 59 -82 104 0 201 -22 297 -68 l80 -38 66 33 c89 45 205 73
301 73 90 0 91 0 59 93 -73 211 -298 339 -521 296z"/>
<path d="M4418 7372 c-117 -125 -157 -287 -108 -443 25 -82 54 -128 119 -194
100 -101 253 -151 387 -126 110 20 110 19 64 104 -45 83 -75 187 -85 297 l-7
75 -50 30 c-72 43 -186 160 -232 238 -21 37 -40 67 -41 67 -1 0 -22 -21 -47
-48z"/>
<path d="M5780 7357 c-43 -75 -155 -192 -231 -240 l-56 -36 -6 -83 c-7 -100
-36 -199 -85 -290 -20 -37 -34 -70 -31 -72 10 -10 125 -36 160 -36 312 0 535
305 440 602 -22 68 -95 178 -136 204 -18 12 -23 8 -55 -49z"/>
<path d="M1395 8074 c-59 -5 -206 -22 -253 -31 -19 -3 -40 -15 -49 -29 -14
-22 -14 -26 2 -50 19 -29 -1 -29 259 -3 145 14 220 7 351 -35 84 -27 115 -24
135 14 17 31 -3 56 -62 78 -111 41 -267 64 -383 56z"/>
<path d="M2515 8066 c-104 -17 -220 -54 -241 -77 -22 -25 -11 -67 21 -79 18
-7 43 -3 97 14 125 41 218 51 354 37 234 -24 243 -24 259 -11 22 18 19 67 -5
80 -58 31 -369 54 -485 36z"/>
<path d="M1335 7803 c-128 -15 -194 -25 -217 -34 -47 -19 -43 -82 7 -95 13 -3
57 0 97 7 40 8 143 14 228 13 143 0 161 -2 238 -27 97 -33 131 -32 149 3 26
52 -30 85 -202 121 -82 17 -214 23 -300 12z"/>
<path d="M2475 7793 c-38 -8 -99 -24 -135 -37 -52 -17 -67 -27 -74 -49 -8 -21
-6 -31 9 -48 23 -24 35 -23 179 15 118 31 212 34 399 10 121 -16 129 -15 147
1 27 24 25 61 -2 79 -28 18 -262 46 -373 45 -44 0 -111 -7 -150 -16z"/>
<path d="M1300 7535 c-8 -2 -55 -9 -103 -16 -74 -9 -90 -15 -103 -35 -9 -12
-13 -32 -10 -42 12 -35 46 -41 147 -26 197 31 369 20 502 -31 51 -20 64 -19
92 9 29 29 24 61 -15 81 -74 38 -184 58 -340 61 -85 1 -162 1 -170 -1z"/>
<path d="M2461 7525 c-86 -19 -152 -42 -179 -61 -30 -21 -28 -59 3 -80 25 -16
30 -16 113 9 137 42 208 49 341 37 64 -6 142 -15 174 -21 49 -8 63 -8 83 6 24
16 31 48 15 74 -25 39 -424 65 -550 36z"/>
<path d="M1310 7269 c-142 -15 -193 -27 -212 -50 -22 -27 -22 -31 1 -60 l18
-23 156 19 c186 21 285 17 410 -19 110 -33 132 -33 153 -1 26 40 0 69 -83 95
-151 47 -267 57 -443 39z"/>
<path d="M2540 7274 c-180 -34 -268 -66 -276 -100 -4 -17 0 -31 12 -45 22 -25
46 -23 188 15 106 28 192 32 326 16 191 -23 195 -23 213 -5 21 20 22 58 2 75
-30 25 -386 59 -465 44z"/>
<path d="M2025 5733 c-55 -8 -126 -12 -157 -9 -68 5 -74 -6 -33 -60 14 -18 25
-34 25 -36 0 -2 -33 -2 -72 0 -123 6 -246 -31 -323 -99 -35 -31 -44 -49 -25
-49 6 0 35 -20 66 -45 30 -25 62 -45 72 -46 9 0 -7 -9 -35 -20 -63 -24 -105
-64 -138 -129 -13 -26 -41 -62 -61 -78 -35 -29 -36 -32 -24 -61 16 -40 73 -90
111 -98 16 -3 29 -9 29 -13 0 -23 -53 -78 -103 -105 l-58 -32 38 -37 c45 -43
112 -76 153 -76 l29 0 -24 -36 c-30 -45 -49 -108 -41 -140 4 -13 2 -24 -3 -24
-14 0 -179 140 -224 189 -47 52 -53 68 -133 334 -37 122 -75 239 -85 259 -24
47 -54 68 -100 68 -29 0 -45 8 -76 39 -30 30 -50 41 -86 46 -27 4 -50 5 -53 3
-2 -3 12 -22 31 -42 19 -21 35 -45 35 -55 0 -30 -52 -59 -104 -59 -46 0 -73
-10 -50 -19 6 -2 19 -10 30 -17 17 -13 17 -16 1 -52 -9 -22 -19 -56 -23 -76
-5 -29 -11 -38 -26 -38 -11 0 -28 -5 -39 -11 -19 -10 -17 -12 23 -32 35 -18
43 -26 40 -47 -13 -125 10 -178 119 -267 57 -46 78 -72 106 -128 20 -38 63
-113 97 -165 34 -52 92 -147 129 -210 63 -109 68 -123 88 -235 16 -87 22 -163
23 -277 l1 -157 25 6 c33 8 77 30 85 43 27 44 50 -71 41 -215 -3 -60 -9 -125
-12 -143 l-6 -33 50 31 c66 41 145 112 172 155 19 31 23 33 50 23 40 -13 149
5 267 47 l93 32 29 -51 c38 -66 60 -95 61 -78 0 18 110 132 127 132 9 0 13
-18 13 -67 1 -78 22 -147 70 -226 28 -47 52 -80 144 -202 20 -26 -129 -601
-199 -767 l-37 -88 -107 -2 c-58 -1 -123 -1 -144 0 -68 4 -159 -16 -208 -47
-25 -16 -62 -34 -81 -40 -40 -13 -82 -54 -97 -93 l-10 -27 34 15 c48 20 70 18
82 -8 8 -18 4 -31 -19 -67 -39 -62 -36 -73 9 -50 50 25 58 24 81 -12 20 -32
20 -32 0 -76 -11 -25 -18 -47 -15 -49 2 -3 21 5 41 17 l36 21 35 -30 c43 -38
97 -47 190 -32 96 15 421 98 455 115 46 24 87 80 110 152 36 109 73 183 165
332 85 138 88 141 192 220 58 44 159 110 225 147 l119 67 -27 28 c-14 15 -40
33 -56 40 l-29 12 23 25 c13 14 50 42 82 63 51 33 86 47 219 85 25 8 22 17
-28 72 l-46 51 88 47 c126 69 204 86 296 65 36 -9 37 -8 37 21 0 33 -13 63
-42 94 l-19 22 65 22 c36 12 70 19 75 16 5 -4 25 -32 43 -64 40 -71 186 -264
266 -354 76 -84 84 -40 -83 -433 -38 -88 -69 -161 -71 -163 -1 -2 -89 -7 -196
-11 -199 -7 -229 -14 -281 -59 -9 -8 -41 -25 -69 -36 -41 -16 -58 -30 -75 -61
-32 -57 -29 -66 14 -44 48 24 70 24 83 -1 9 -16 7 -26 -10 -49 -11 -16 -23
-44 -27 -62 l-6 -33 35 22 c45 28 62 28 77 -2 11 -19 10 -28 -2 -52 -8 -16
-18 -40 -22 -52 l-7 -24 41 24 c34 19 43 21 58 10 102 -72 124 -71 438 13 151
40 198 60 231 97 12 12 50 82 85 153 76 156 127 213 267 294 50 30 92 58 92
62 0 11 -59 59 -73 59 -17 0 43 58 93 90 25 15 71 36 103 45 33 9 55 21 50 25
-23 24 -130 80 -150 80 -14 0 -26 7 -29 18 -3 9 -19 45 -36 79 -36 74 -34 112
13 234 47 123 45 122 116 33 34 -42 129 -149 210 -238 81 -89 156 -171 167
-183 16 -20 17 -27 6 -75 -17 -71 -72 -239 -110 -332 -27 -68 -96 -214 -107
-226 -2 -2 -88 -7 -191 -10 -197 -7 -225 -13 -280 -64 -13 -11 -42 -30 -65
-41 -30 -14 -48 -32 -64 -64 -13 -25 -21 -46 -19 -48 2 -2 16 3 32 12 71 37
100 5 59 -66 -13 -24 -25 -52 -25 -62 0 -17 1 -17 28 1 50 36 68 36 90 0 19
-29 19 -35 6 -59 -8 -16 -14 -35 -14 -45 0 -15 2 -15 25 0 32 21 38 20 81 -9
57 -38 119 -34 350 26 213 54 235 62 278 106 31 30 52 73 156 318 103 242 108
252 145 282 19 16 80 56 135 89 54 32 100 64 100 71 0 6 -16 25 -36 41 l-36
30 53 42 c56 44 112 72 167 85 18 3 32 10 32 14 0 14 -125 81 -163 88 -25 4
-44 14 -54 30 -9 14 -39 39 -67 57 -67 44 -121 98 -146 146 -44 85 -51 149
-60 515 -7 299 -11 365 -30 449 -11 54 -19 100 -18 102 2 1 62 10 133 19 328
40 548 111 681 219 109 88 154 177 154 305 0 167 -68 283 -203 349 -79 38
-146 52 -256 52 -145 0 -245 -23 -576 -130 -303 -98 -535 -134 -880 -134 -251
-1 -309 8 -405 60 -88 48 -113 141 -64 239 46 92 104 105 477 105 l289 0 38
-32 c79 -68 268 -118 444 -118 91 0 243 19 331 41 l47 12 -48 26 c-42 23 -81
67 -69 79 2 2 27 -1 56 -8 74 -18 153 -7 255 34 109 44 190 60 269 52 l60 -5
-45 40 c-25 22 -70 52 -100 67 -50 25 -65 27 -167 27 l-112 0 34 27 c38 32 67
95 37 83 -41 -16 -152 -35 -207 -35 -33 0 -103 12 -155 25 -237 63 -411 38
-591 -85 l-59 -40 -241 12 c-403 20 -580 -13 -691 -129 -103 -108 -133 -293
-69 -437 29 -67 104 -142 176 -176 295 -141 954 -110 1513 71 218 70 324 92
449 93 120 1 141 -6 186 -65 21 -29 33 -95 23 -133 -23 -92 -221 -175 -505
-211 -213 -27 -345 -33 -419 -18 -111 23 -420 27 -665 9 -119 -9 -273 -16
-342 -16 -223 0 -535 34 -737 81 l-98 22 -34 69 -34 68 27 0 c14 0 44 9 67 19
42 19 114 77 114 92 0 5 -19 18 -42 30 -53 26 -108 77 -108 100 0 10 11 20 27
24 43 10 79 42 102 87 l20 42 -34 23 c-19 13 -48 49 -66 83 -39 73 -84 115
-141 131 l-43 11 30 15 c17 9 46 30 66 48 20 18 42 35 50 37 10 4 6 14 -16 38
-64 69 -207 115 -331 108 l-72 -5 29 46 c16 24 29 48 29 52 0 4 -24 5 -52 2
-29 -3 -108 2 -174 11 -211 27 -326 -11 -386 -128 l-20 -39 -29 51 c-35 61
-95 100 -183 119 -72 15 -72 15 -201 -4z m2590 -283 c217 -10 242 -13 260 -31
20 -20 20 -20 0 -35 -16 -12 -68 -14 -320 -12 -265 3 -308 1 -372 -16 -140
-35 -198 -108 -198 -247 0 -66 4 -81 28 -118 37 -55 99 -94 200 -123 76 -21
99 -23 327 -23 361 1 577 35 903 141 313 102 388 118 547 118 117 0 143 -3
193 -23 87 -34 138 -77 172 -146 27 -55 30 -69 30 -160 0 -92 -2 -104 -30
-154 -16 -29 -50 -71 -75 -93 -62 -55 -225 -132 -343 -162 -104 -27 -318 -61
-454 -72 -88 -7 -92 -10 -73 -59 5 -14 19 -69 31 -123 18 -82 22 -149 29 -447
7 -308 10 -359 29 -429 12 -44 32 -98 45 -120 30 -51 113 -130 161 -153 58
-28 56 -49 -15 -166 -79 -131 -174 -327 -290 -597 -106 -249 -131 -295 -168
-314 -40 -20 -358 -104 -424 -112 l-58 -7 15 30 c10 19 12 38 6 58 -8 32 -22
35 -89 13 -42 -13 -48 -7 -27 26 13 19 15 36 10 62 l-6 36 -45 -7 -46 -6 22
29 c15 20 21 39 18 55 -8 42 26 50 244 57 109 3 200 8 203 11 2 3 31 61 64
130 63 133 121 291 166 457 l29 103 -41 42 c-109 114 -363 400 -402 452 -25
33 -64 85 -87 115 -23 31 -70 101 -105 155 -87 139 -121 182 -192 243 -82 71
-103 81 -125 58 -16 -16 -15 -20 20 -84 l37 -67 -597 -175 c-328 -95 -624
-182 -658 -192 l-61 -18 20 -89 c18 -78 19 -93 7 -122 -12 -29 -237 -406 -501
-839 -67 -109 -104 -184 -128 -253 -35 -102 -64 -148 -110 -171 -34 -17 -346
-93 -434 -105 -81 -11 -101 -7 -87 19 12 22 13 70 2 87 -6 10 -19 10 -60 -1
-56 -14 -74 -6 -49 22 15 17 20 39 18 80 -1 22 -4 22 -53 16 l-52 -7 27 32
c15 18 27 43 27 56 0 36 37 43 250 49 179 6 196 8 212 26 47 56 146 369 218
685 l41 179 48 52 c70 77 158 211 181 276 12 35 20 86 21 130 1 73 15 159 18
110 0 -13 27 -50 60 -85 32 -35 61 -70 63 -78 7 -17 24 2 68 78 63 106 73 153
72 316 -1 81 1 147 4 147 4 0 22 -13 40 -30 30 -26 115 -60 151 -60 9 0 13 18
13 65 0 84 18 134 97 279 36 65 80 163 98 217 18 55 35 102 38 105 3 3 45 -3
94 -15 317 -74 709 -97 1113 -66 255 20 422 19 567 -2 134 -20 247 -19 443 3
339 38 558 125 606 241 31 72 12 173 -43 234 -51 57 -116 74 -253 66 -120 -7
-204 -26 -410 -92 -364 -117 -663 -161 -1033 -152 -306 7 -429 36 -527 124
-72 65 -93 109 -98 214 -5 99 6 142 50 210 55 82 154 131 300 147 118 13 143
13 383 2z m-2250 -65 c25 -30 50 -55 55 -55 4 0 27 25 51 55 24 30 49 54 55
55 6 0 67 -25 135 -55 123 -54 124 -54 199 -48 92 7 129 -8 155 -63 25 -52 13
-96 -40 -153 -25 -27 -41 -52 -36 -57 4 -5 24 -39 44 -75 l36 -66 -129 -157
-130 -158 0 -97 0 -97 -52 -34 c-50 -33 -53 -38 -65 -98 -7 -34 -17 -71 -23
-82 -21 -38 -181 -61 -296 -41 -95 17 -110 29 -124 98 -6 32 -13 65 -16 74 -3
9 -29 33 -59 53 l-55 36 0 101 0 100 -126 150 -126 151 26 46 c63 111 62 102
17 150 -64 67 -67 137 -10 195 30 30 31 30 117 25 l87 -6 120 53 c66 29 125
54 131 54 6 1 33 -24 59 -54z m-1420 -77 c9 -13 32 -75 51 -138 20 -63 58
-186 85 -272 l50 -156 82 -82 c44 -44 125 -115 179 -157 84 -65 99 -82 113
-122 8 -25 42 -95 76 -156 87 -158 101 -198 103 -283 l1 -73 35 6 c51 10 116
40 144 68 l24 24 5 -161 c3 -89 8 -173 12 -187 6 -23 3 -28 -32 -41 -54 -22
-179 -56 -235 -63 l-47 -7 -33 46 c-52 74 -126 196 -343 567 -111 190 -220
372 -242 405 -23 32 -59 95 -81 139 -34 67 -52 89 -111 138 -40 32 -81 72 -91
90 -24 38 -27 89 -6 81 19 -7 72 21 80 43 5 13 -2 27 -27 49 -18 17 -39 33
-46 35 -16 6 -17 70 -2 96 9 16 10 16 11 1 0 -18 28 -38 54 -38 8 0 27 11 42
24 l28 23 -32 40 c-37 48 -29 62 32 56 30 -4 45 -1 55 11 19 23 47 20 66 -6z
m3673 -1795 c32 -32 73 -71 90 -87 38 -35 39 -45 8 -99 -46 -81 -79 -187 -80
-262 -1 -60 3 -77 27 -116 37 -63 35 -89 -12 -138 -35 -36 -164 -273 -322
-591 -26 -52 -58 -106 -73 -119 -29 -28 -345 -116 -455 -127 -62 -7 -63 -7
-52 14 13 25 14 71 2 91 -7 11 -17 12 -54 2 -60 -15 -61 -15 -43 11 16 23 21
64 10 91 -4 11 -13 13 -42 6 -42 -9 -50 -6 -32 16 7 9 16 33 19 53 6 32 11 38
46 48 22 7 99 13 171 13 72 1 158 4 191 7 l59 6 107 252 c59 138 112 272 118
298 13 56 10 62 -75 158 -108 121 -276 354 -276 383 0 10 197 8 244 -2 l38 -9
-6 31 c-4 17 -18 44 -33 59 -20 21 -23 29 -12 33 46 17 169 33 266 34 l112 1
59 -57z"/>
<path d="M2066 5061 c13 -14 205 -121 215 -121 5 0 9 29 9 65 l0 65 -117 0
c-72 0 -113 -4 -107 -9z"/>
<path d="M2520 4855 l0 -204 -151 -3 -152 -3 87 -59 86 -60 0 -57 c0 -55 -1
-58 -37 -81 -29 -17 -53 -23 -96 -23 -52 0 -57 -2 -55 -20 5 -31 100 -33 167
-4 l51 21 45 -21 c56 -26 160 -30 169 -5 10 27 7 29 -52 29 -42 0 -67 6 -94
23 -37 23 -38 26 -38 80 l0 57 85 45 c49 26 85 51 85 60 -1 8 -7 69 -15 135
-22 181 -29 161 85 229 55 32 100 60 100 62 0 2 -61 4 -135 4 l-135 0 0 -205z"/>
<path d="M17158 8360 c-533 -94 -874 -314 -1024 -660 -69 -158 -98 -381 -75
-577 31 -265 126 -458 317 -643 204 -198 457 -331 994 -525 398 -143 546 -208
685 -300 197 -130 284 -281 272 -470 -22 -357 -317 -557 -852 -581 -509 -23
-1088 140 -1403 395 l-62 51 2 -342 3 -342 111 -47 c518 -219 1356 -288 1972
-164 235 48 480 147 641 258 236 165 393 418 436 704 61 401 -46 751 -311
1016 -235 236 -449 354 -1169 642 -423 169 -590 258 -710 379 -141 141 -172
325 -84 498 65 127 235 220 484 264 123 21 461 30 595 15 319 -37 634 -147
913 -319 l37 -24 0 285 0 284 -77 33 c-178 74 -397 133 -642 170 -110 17 -178
20 -536 19 -355 -1 -424 -3 -517 -19z"/>
<path d="M7580 6250 l0 -2030 280 0 280 0 2 1486 3 1486 416 -593 c229 -327
665 -949 968 -1384 593 -847 624 -887 743 -943 101 -48 141 -52 513 -52 l345
0 0 2030 0 2030 -280 0 -280 0 -2 -1487 -3 -1487 -977 1395 c-706 1009 -992
1410 -1031 1445 -29 27 -78 61 -109 76 -107 53 -152 58 -525 58 l-343 0 0
-2030z"/>
<path d="M11943 6828 c3 -1269 6 -1463 19 -1533 73 -371 195 -601 429 -810
179 -160 440 -280 734 -340 215 -43 295 -50 600 -49 246 0 311 4 430 22 240
38 393 82 571 167 155 73 253 142 370 259 227 228 346 503 383 890 7 72 11
584 11 1478 l0 1368 -425 0 -424 0 -4 -1447 c-3 -1327 -5 -1454 -20 -1518 -95
-387 -278 -591 -617 -686 -77 -22 -104 -24 -285 -24 -233 0 -305 15 -460 90
-244 119 -382 322 -451 665 -16 77 -18 213 -21 1503 l-4 1417 -420 0 -420 0 4
-1452z"/>
<path d="M12530 2815 l0 -485 65 0 65 0 0 485 0 485 -65 0 -65 0 0 -485z"/>
<path d="M9840 3210 l0 -70 70 0 70 0 0 70 0 70 -70 0 -70 0 0 -70z"/>
<path d="M14950 3210 l0 -70 70 0 70 0 0 70 0 70 -70 0 -70 0 0 -70z"/>
<path d="M17710 3210 l0 -70 70 0 70 0 0 70 0 70 -70 0 -70 0 0 -70z"/>
<path d="M7670 2785 l0 -455 65 0 65 0 0 372 c0 315 2 369 13 353 8 -11 67
-117 132 -235 65 -118 152 -277 193 -352 l76 -138 83 0 83 0 0 455 0 456 -62
-3 -63 -3 -5 -364 c-4 -315 -7 -361 -18 -335 -8 16 -51 97 -96 179 -46 83
-129 234 -186 338 l-102 187 -89 0 -89 0 0 -455z"/>
<path d="M13220 2935 c0 -187 4 -324 11 -357 35 -162 141 -254 307 -265 143
-10 256 37 320 131 62 93 67 125 67 476 l0 315 -61 3 -62 3 -4 -313 c-4 -305
-5 -315 -29 -372 -16 -39 -37 -70 -62 -90 -34 -27 -48 -31 -112 -34 -92 -5
-134 9 -179 58 -57 63 -60 83 -63 433 l-4 317 -65 0 -64 0 0 -305z"/>
<path d="M9430 3162 l-45 -18 -3 -77 -3 -77 -74 0 -75 0 0 -50 0 -50 75 0 75
0 0 -207 c0 -120 5 -225 11 -248 15 -52 65 -100 120 -115 43 -12 147 -9 168 5
6 3 11 28 11 55 0 49 0 49 -26 40 -49 -19 -90 -12 -123 21 l-31 31 0 209 0
209 85 0 85 0 0 50 0 50 -85 0 -85 0 0 95 c0 108 0 107 -80 77z"/>
<path d="M18168 3162 l-48 -16 0 -78 0 -78 -75 0 -75 0 0 -50 0 -50 75 0 75 0
0 -225 c0 -255 6 -283 75 -325 43 -27 134 -37 193 -21 l42 12 0 50 c0 45 -2
50 -17 44 -10 -4 -36 -9 -59 -12 -35 -5 -46 -1 -75 25 l-34 30 -3 211 -3 211
90 0 91 0 0 50 0 50 -90 0 -90 0 0 95 c0 106 3 102 -72 77z"/>
<path d="M8771 3000 c-50 -11 -135 -51 -133 -62 1 -5 2 -27 2 -51 l0 -44 61
31 c49 24 74 30 128 30 105 1 151 -35 167 -131 l6 -39 -64 4 c-174 11 -330
-53 -367 -151 -24 -63 -6 -163 37 -210 51 -57 188 -83 279 -53 27 9 66 32 86
50 l37 34 0 -39 0 -39 56 0 55 0 -3 258 c-3 241 -4 260 -25 297 -26 50 -58 80
-105 99 -47 20 -160 28 -217 16z m212 -360 c18 0 19 -5 14 -59 -9 -106 -61
-159 -165 -168 -49 -4 -62 -1 -92 19 -71 48 -63 140 14 180 44 23 133 39 180
32 16 -2 38 -4 49 -4z"/>
<path d="M10413 3000 c-176 -37 -287 -214 -253 -403 22 -118 87 -206 190 -256
47 -22 68 -26 145 -26 79 1 97 4 148 30 70 34 120 88 156 164 22 48 26 69 26
151 0 84 -3 102 -29 158 -35 75 -105 143 -172 166 -59 20 -157 28 -211 16z
m130 -101 c120 -33 188 -196 141 -336 -33 -97 -102 -152 -192 -153 -121 0
-204 99 -205 246 -1 117 56 210 148 242 40 14 62 14 108 1z"/>
<path d="M11275 3001 c-53 -14 -112 -49 -139 -83 l-26 -33 0 53 0 52 -55 0
-55 0 0 -330 0 -330 60 0 60 0 0 188 c0 222 11 275 69 333 67 68 170 73 227
13 35 -39 44 -106 44 -329 l0 -205 61 0 60 0 -3 258 c-3 241 -4 260 -25 297
-26 50 -58 80 -105 99 -45 19 -133 28 -173 17z"/>
<path d="M11963 3000 c-48 -10 -128 -43 -136 -56 -3 -5 -3 -30 0 -56 l6 -48
26 19 c42 30 138 54 188 47 87 -12 131 -54 136 -131 l2 -35 -110 -3 c-227 -8
-333 -88 -323 -242 3 -53 9 -71 34 -101 48 -60 95 -79 194 -79 95 0 135 14
189 67 l31 30 0 -41 0 -41 55 0 55 0 0 233 c0 260 -8 312 -61 371 -16 19 -47
41 -69 50 -50 20 -161 28 -217 16z m208 -360 c15 0 19 -8 19 -38 0 -115 -75
-192 -188 -192 -128 0 -167 152 -53 206 41 19 132 34 175 28 16 -2 37 -4 47
-4z"/>
<path d="M14412 2996 c-54 -18 -91 -41 -119 -75 l-23 -26 0 48 0 47 -60 0 -60
0 0 -330 0 -330 59 0 59 0 4 208 c3 193 5 210 27 255 28 57 69 93 122 107 83
23 156 -17 178 -96 6 -22 11 -131 11 -256 l0 -218 66 0 66 0 -4 243 c-5 250
-9 277 -52 344 -46 71 -180 109 -274 79z"/>
<path d="M16160 3001 c-62 -14 -107 -38 -150 -81 -64 -64 -83 -117 -88 -237
-7 -177 38 -271 163 -333 66 -33 74 -35 175 -35 76 0 119 5 158 18 l52 19 0
60 c0 33 -3 58 -7 56 -136 -70 -246 -75 -326 -15 -46 35 -87 105 -87 149 l0
28 236 0 237 0 -6 74 c-7 84 -33 161 -71 211 -51 66 -189 108 -286 86z m149
-117 c39 -23 71 -75 74 -120 l2 -39 -169 -3 -169 -2 6 36 c20 121 154 188 256
128z"/>
<path d="M16925 2998 c-45 -16 -85 -47 -106 -82 l-19 -31 0 53 0 52 -60 0 -60
0 0 -330 0 -330 64 0 65 0 3 208 c3 194 5 210 27 255 13 26 40 60 59 75 30 23
45 27 99 27 l63 0 0 51 c0 50 -1 52 -31 58 -42 8 -68 7 -104 -6z"/>
<path d="M17300 3001 c-79 -16 -140 -70 -160 -139 -30 -108 15 -174 170 -252
43 -22 86 -50 94 -62 32 -46 15 -101 -39 -124 -54 -22 -120 -16 -207 21 -16 6
-18 1 -18 -48 0 -53 1 -55 33 -67 52 -18 161 -24 214 -11 110 28 169 105 161
211 -6 83 -35 117 -150 175 -108 54 -125 68 -134 112 -14 69 77 109 182 78 31
-9 58 -14 60 -12 2 2 5 26 6 53 l3 49 -55 12 c-63 13 -109 14 -160 4z"/>
<path d="M9850 2660 l0 -330 60 0 60 0 0 330 0 330 -60 0 -60 0 0 -330z"/>
<path d="M14960 2660 l0 -330 60 0 60 0 0 330 0 330 -60 0 -60 0 0 -330z"/>
<path d="M15222 2978 c3 -7 56 -156 118 -330 l114 -318 75 0 76 0 49 138 c58
164 172 480 182 505 6 16 1 18 -56 15 -73 -4 -53 33 -166 -301 -42 -125 -80
-225 -83 -222 -3 4 -45 122 -92 263 l-86 257 -68 3 c-52 2 -66 0 -63 -10z"/>
<path d="M17720 2660 l0 -330 60 0 60 0 0 330 0 330 -60 0 -60 0 0 -330z"/>
<path d="M18480 2982 c0 -5 54 -157 120 -337 66 -181 120 -338 120 -350 -1
-34 -36 -100 -69 -128 -26 -21 -43 -27 -82 -27 -41 0 -49 -3 -49 -19 0 -10 -3
-33 -6 -50 l-6 -31 71 0 c83 0 133 20 176 72 38 44 57 90 164 388 51 140 110
304 132 363 21 60 39 113 39 118 0 5 -27 9 -59 9 l-59 0 -87 -262 c-48 -145
-91 -266 -94 -270 -4 -5 -46 114 -94 262 l-88 270 -64 0 c-36 0 -65 -4 -65 -8z"/>
<path d="M10602 1765 c-88 -27 -123 -87 -130 -222 l-5 -93 -78 0 -79 0 0 -50
0 -50 80 0 80 0 0 -285 0 -285 60 0 60 0 0 285 0 285 90 0 90 0 0 50 0 50 -90
0 -90 0 0 58 c0 126 30 167 121 167 l59 0 0 46 c0 34 -5 49 -16 53 -26 10
-106 5 -152 -9z"/>
<path d="M11887 1733 c-4 -3 -7 -35 -7 -70 l0 -63 70 0 70 0 0 70 0 70 -63 0
c-35 0 -67 -3 -70 -7z"/>
<path d="M11365 1696 c-115 -36 -171 -101 -182 -210 -13 -123 36 -188 205
-274 138 -71 172 -102 179 -165 9 -80 -38 -137 -131 -158 -45 -10 -63 -9 -140
11 -48 12 -89 20 -91 18 -2 -1 -5 -27 -6 -57 l-4 -54 40 -14 c22 -8 79 -17
126 -20 203 -13 333 79 347 243 10 134 -43 208 -220 300 -119 62 -168 107
-168 155 0 46 27 89 68 106 47 21 153 20 211 -1 24 -9 45 -15 47 -14 1 2 7 28
12 58 12 65 12 64 -73 79 -80 14 -170 13 -220 -3z"/>
<path d="M9825 1460 c-105 -15 -196 -84 -241 -182 -26 -56 -29 -73 -29 -163 1
-92 3 -105 32 -161 36 -69 95 -127 162 -157 71 -33 207 -31 282 4 137 65 214
217 189 377 -11 63 -43 138 -77 177 -73 84 -194 123 -318 105z m162 -126 c155
-90 133 -400 -33 -454 -60 -20 -138 -8 -182 27 -108 87 -123 283 -30 389 68
77 155 91 245 38z"/>
<path d="M12523 1460 c-58 -12 -95 -33 -132 -75 l-31 -36 0 51 0 50 -60 0 -60
0 0 -335 0 -335 59 0 59 0 4 208 c3 200 4 209 30 264 45 96 137 137 222 99 76
-33 80 -49 86 -326 l5 -240 60 0 60 0 0 235 c0 264 -7 305 -61 368 -52 61
-150 90 -241 72z"/>
<path d="M13230 1459 c-97 -19 -190 -111 -222 -219 -19 -66 -17 -204 5 -267
23 -65 84 -135 143 -163 93 -45 242 -23 318 48 l28 27 -4 -76 c-6 -96 -34
-150 -98 -187 -61 -36 -163 -36 -269 2 -41 14 -75 25 -76 23 -1 -1 -5 -26 -8
-54 l-6 -53 57 -16 c170 -50 370 -25 445 54 14 15 36 47 49 72 23 45 23 49 26
423 l3 377 -56 0 -55 0 0 -47 0 -48 -30 37 c-47 57 -154 86 -250 67z m162
-115 c37 -19 77 -74 94 -130 44 -146 -19 -292 -139 -325 -125 -33 -240 100
-224 259 6 58 45 148 76 176 49 44 130 53 193 20z"/>
<path d="M14011 1459 c-61 -11 -146 -50 -145 -67 1 -7 2 -29 3 -50 l1 -39 60
30 c48 24 73 30 127 30 109 1 161 -40 166 -131 l2 -37 -55 3 c-177 8 -326 -51
-366 -145 -17 -38 -18 -120 -3 -160 28 -74 116 -123 223 -123 71 0 118 15 171
55 l45 35 0 -40 0 -40 55 0 55 0 0 238 c0 278 -8 324 -69 382 -56 54 -164 77
-270 59z m216 -420 c-6 -74 -36 -122 -93 -149 -97 -48 -214 -3 -214 82 0 86
69 126 224 127 l89 1 -6 -61z"/>
<path d="M14849 1460 c-53 -9 -93 -28 -138 -66 l-31 -26 0 41 0 41 -60 0 -60
0 0 -470 0 -470 60 0 60 0 0 182 0 182 32 -33 c54 -55 83 -66 183 -66 68 0 99
5 127 19 112 55 177 199 165 367 -14 208 -151 329 -338 299z m113 -116 c94
-49 127 -239 64 -369 -32 -65 -72 -96 -131 -102 -129 -15 -227 111 -212 273
16 172 148 266 279 198z"/>
<path d="M15587 1460 c-113 -20 -196 -84 -246 -190 -22 -47 -26 -69 -26 -150
0 -82 4 -103 26 -151 36 -76 89 -133 157 -166 50 -25 68 -28 152 -28 90 0 98
2 160 36 75 41 130 106 157 184 22 63 22 194 0 253 -58 156 -210 241 -380 212z
m153 -119 c80 -40 132 -173 111 -280 -31 -154 -159 -230 -287 -172 -111 51
-157 227 -92 356 55 110 163 149 268 96z"/>
<path d="M16405 1461 c-45 -11 -69 -27 -104 -66 l-31 -36 0 46 0 45 -60 0 -60
0 0 -335 0 -335 59 0 59 0 5 198 c5 204 12 247 50 302 38 57 71 75 138 75 l59
0 0 52 c0 48 -2 53 -22 53 -13 0 -32 2 -43 4 -11 3 -33 1 -50 -3z"/>
<path d="M16868 1460 c-156 -27 -252 -156 -251 -340 1 -139 48 -242 139 -300
85 -54 230 -66 348 -30 l66 21 0 59 c0 59 -6 70 -26 50 -19 -19 -128 -50 -178
-50 -113 1 -216 92 -216 191 l0 29 235 0 235 0 0 38 c0 58 -27 170 -50 206
-63 103 -171 148 -302 126z m95 -99 c22 -5 50 -20 64 -33 30 -27 62 -93 63
-125 0 -23 0 -23 -170 -23 -168 0 -170 0 -170 22 0 28 35 100 60 123 18 16 83
44 105 44 6 0 27 -3 48 -8z"/>
<path d="M11890 1115 l0 -335 60 0 60 0 0 335 0 335 -60 0 -60 0 0 -335z"/>
</g>
</svg>
