<?xml version="1.0" standalone="no"?>
<!DOCTYPE svg PUBLIC "-//W3C//DTD SVG 20010904//EN"
 "http://www.w3.org/TR/2001/REC-SVG-20010904/DTD/svg10.dtd">
<svg version="1.0" xmlns="http://www.w3.org/2000/svg"
 width="1503.000000pt" height="1982.000000pt" viewBox="0 0 1503.000000 1982.000000"
 preserveAspectRatio="xMidYMid meet">
<metadata>
Created by potrace 1.13, written by Peter Selinger 2001-2015
</metadata>
<g transform="translate(0.000000,1982.000000) scale(0.100000,-0.100000)"
fill="#000000" stroke="none">
<path d="M0 9910 l0 -9910 7515 0 7515 0 0 9910 0 9910 -7515 0 -7515 0 0
-9910z m10310 5347 c0 -1122 -4 -1759 -11 -1848 -46 -587 -292 -1275 -676
-1897 -124 -202 -236 -350 -406 -541 -88 -98 -149 -157 -348 -336 -64 -58
-252 -197 -379 -281 -248 -163 -464 -276 -725 -379 -233 -92 -219 -90 -333
-51 -286 98 -625 271 -907 464 -392 267 -742 614 -983 974 -430 641 -712 1377
-772 2013 -6 71 -10 734 -10 1853 l0 1742 2775 0 2775 0 0 -1713z"/>
<path d="M8713 16690 c-85 -22 -117 -38 -199 -96 -139 -98 -227 -255 -241
-426 l-6 -78 -41 -24 c-99 -58 -205 -190 -246 -309 -31 -87 -38 -249 -16 -337
38 -150 122 -271 246 -355 178 -121 403 -137 599 -45 l63 30 32 -19 c79 -48
155 -65 286 -65 110 0 133 3 192 26 189 71 324 211 381 393 32 104 29 262 -7
364 -45 129 -133 242 -243 315 -40 27 -41 29 -48 100 -19 210 -152 399 -339
486 -45 21 -105 43 -134 49 -78 16 -197 12 -279 -9z m319 -248 c98 -48 175
-144 198 -248 l8 -34 -52 0 c-74 0 -180 -25 -254 -60 l-64 -30 -64 31 c-73 35
-175 59 -251 59 -60 0 -61 3 -38 71 37 105 134 202 236 234 27 9 77 14 129 12
74 -2 95 -7 152 -35z m-675 -645 c35 -58 154 -177 203 -202 27 -14 30 -20 30
-63 0 -68 26 -165 63 -241 17 -36 33 -69 35 -72 7 -15 -93 -31 -165 -27 -101
6 -172 39 -242 113 -110 117 -137 274 -69 414 21 43 93 131 107 131 3 0 21
-24 38 -53z m1108 11 c66 -76 89 -139 89 -248 1 -82 -2 -102 -25 -150 -75
-159 -235 -243 -411 -216 -73 11 -74 14 -35 97 38 81 52 132 63 227 l7 62 62
44 c69 50 109 92 162 172 20 30 39 54 44 54 4 0 24 -19 44 -42z"/>
<path d="M5600 16591 c-41 -5 -114 -14 -162 -21 l-88 -12 0 -715 0 -715 23 6
c75 20 283 39 442 39 194 1 290 -12 462 -60 l92 -26 93 27 c162 47 267 60 463
59 158 0 352 -18 443 -40 l22 -5 0 716 c0 566 -3 716 -12 716 -7 0 -60 7 -118
16 -58 8 -193 17 -300 20 -218 7 -316 -4 -475 -53 -107 -32 -128 -32 -220 -4
-146 45 -196 52 -395 56 -107 2 -229 0 -270 -4z m484 -241 c101 -27 116 -35
116 -64 0 -48 -22 -52 -138 -23 -120 30 -181 33 -332 13 -68 -9 -111 -11 -122
-5 -21 11 -24 52 -5 67 10 9 85 22 207 36 66 8 196 -4 274 -24z m969 9 c80
-12 113 -33 100 -65 -11 -29 -38 -33 -139 -18 -138 19 -218 17 -310 -7 -113
-30 -132 -33 -149 -19 -35 29 -7 69 66 91 126 39 247 44 432 18z m-948 -229
c83 -26 95 -35 95 -66 0 -42 -30 -47 -126 -19 -99 29 -217 33 -365 13 -71 -9
-91 -9 -103 2 -25 20 -20 59 8 70 93 35 380 35 491 0z m935 16 c99 -15 123
-29 113 -67 -7 -27 -38 -32 -127 -20 -127 18 -262 14 -341 -10 -109 -32 -111
-32 -128 -14 -44 43 -10 73 120 104 95 24 233 26 363 7z m-975 -220 c98 -24
135 -43 135 -70 0 -13 -7 -29 -15 -36 -17 -14 -35 -12 -155 20 -72 19 -100 22
-185 17 -55 -4 -126 -11 -157 -17 -41 -8 -63 -8 -78 0 -22 12 -27 52 -7 68 10
9 85 22 207 36 57 7 190 -3 255 -18z m988 3 c80 -12 113 -33 100 -65 -11 -29
-38 -32 -143 -18 -146 19 -214 17 -306 -7 -113 -30 -132 -33 -149 -19 -35 29
-7 69 66 91 126 39 247 44 432 18z m-948 -229 c83 -26 95 -35 95 -66 0 -42
-30 -47 -126 -19 -99 29 -217 33 -365 13 -97 -13 -119 -6 -119 38 0 31 8 35
109 50 125 19 317 11 406 -16z m909 19 c115 -14 136 -22 136 -53 0 -43 -21
-50 -118 -37 -149 19 -268 14 -365 -14 -94 -27 -114 -25 -123 12 -10 37 11 50
116 78 107 27 212 31 354 14z"/>
<path d="M4900 14136 c0 -359 4 -679 10 -737 53 -530 253 -1118 569 -1669 336
-585 753 -1008 1341 -1360 243 -145 675 -339 727 -325 130 32 496 205 718 338
552 331 955 732 1281 1273 344 573 570 1228 614 1778 5 71 10 401 10 732 l0
604 -2635 0 -2635 0 0 -634z m1648 349 c60 -18 104 -53 122 -95 13 -31 30 -40
30 -16 0 23 49 75 94 99 37 20 53 22 151 18 61 -2 143 -4 183 -5 81 -1 86 -8
46 -56 l-27 -31 49 6 c94 12 264 -41 293 -92 7 -14 1 -25 -31 -53 -23 -19 -50
-40 -61 -46 -18 -10 -17 -11 10 -17 41 -8 90 -51 114 -101 12 -22 35 -53 52
-68 l32 -27 -20 -37 c-14 -25 -34 -43 -63 -56 l-42 -19 17 -29 c9 -16 38 -41
65 -55 42 -23 47 -29 36 -43 -24 -29 -102 -72 -130 -72 -33 0 -33 -1 -8 -42
11 -18 20 -41 20 -50 0 -23 81 -45 267 -72 209 -32 394 -39 623 -24 276 17
469 17 597 -1 91 -13 122 -12 265 2 253 25 426 78 479 145 23 30 25 92 3 137
-21 46 -62 60 -164 59 -91 -1 -174 -19 -376 -84 -115 -36 -288 -75 -459 -102
-124 -19 -502 -16 -595 5 -103 23 -211 78 -249 126 -120 151 -77 382 86 468
104 55 236 69 502 54 l184 -11 32 25 c51 39 147 83 206 96 69 15 212 5 304
-21 83 -24 117 -25 209 -5 38 8 71 13 74 11 6 -7 -20 -49 -42 -67 -19 -16 -16
-17 70 -16 80 0 96 -3 141 -28 29 -15 63 -39 77 -54 l26 -27 -63 4 c-49 3 -78
-2 -137 -23 -151 -54 -183 -60 -249 -49 -47 8 -61 7 -61 -2 0 -18 29 -45 63
-59 38 -16 28 -21 -78 -40 -123 -21 -303 -20 -391 3 -82 22 -155 56 -180 83
-16 18 -32 19 -243 19 -224 0 -285 -7 -347 -36 -44 -21 -69 -82 -65 -161 2
-35 64 -90 123 -108 155 -47 539 -31 813 35 44 10 149 41 233 69 234 77 372
100 487 81 151 -24 240 -92 276 -211 83 -272 -123 -454 -594 -523 -58 -9 -121
-16 -141 -16 -41 0 -41 -1 -20 -85 11 -43 18 -145 24 -360 9 -302 16 -360 53
-430 20 -38 82 -98 126 -120 18 -9 36 -25 38 -35 3 -11 18 -22 37 -26 40 -8
119 -48 135 -68 12 -14 11 -16 -6 -16 -28 0 -135 -55 -162 -84 l-23 -24 32
-30 33 -29 -64 -36 c-162 -91 -156 -83 -271 -357 -65 -152 -92 -203 -126 -234
-23 -20 -251 -87 -362 -106 -69 -12 -107 -5 -142 26 -14 14 -20 14 -47 -1 -35
-18 -36 -16 -17 29 12 29 12 35 -4 57 -18 23 -19 23 -54 6 -35 -16 -36 -16
-36 2 0 10 9 30 21 44 16 21 18 31 9 47 -10 19 -13 19 -47 5 -20 -8 -38 -13
-41 -11 -10 11 36 72 67 88 18 9 40 23 49 31 52 46 103 55 303 56 l86 1 46
103 c76 171 147 394 130 406 -4 3 -53 55 -108 116 -55 60 -117 128 -137 150
-20 22 -54 62 -74 88 -20 26 -41 47 -45 47 -13 0 -55 -99 -68 -159 -10 -48 -9
-57 16 -117 24 -55 33 -65 62 -74 42 -11 113 -59 105 -71 -3 -5 -13 -9 -22 -9
-29 -1 -104 -39 -142 -74 l-38 -34 24 -10 c12 -6 27 -19 33 -30 8 -16 -1 -24
-67 -64 -121 -73 -145 -99 -215 -237 -35 -70 -75 -133 -89 -144 -36 -27 -297
-97 -388 -104 -71 -5 -77 -4 -107 21 -31 26 -33 27 -63 11 -41 -21 -46 -15
-25 28 13 28 14 40 5 56 l-11 21 -39 -20 c-46 -23 -50 -15 -19 40 35 62 9 88
-53 56 -34 -18 -37 -5 -9 38 21 32 56 55 82 56 9 0 22 7 30 16 32 39 71 48
232 54 l158 5 80 188 c44 103 82 201 85 217 6 25 -2 38 -53 97 -77 87 -151
185 -198 262 -21 34 -41 61 -44 61 -13 0 -77 -21 -90 -29 -12 -7 -10 -14 8
-36 11 -15 21 -39 21 -54 0 -26 0 -26 -83 -26 -72 0 -90 -4 -147 -32 -82 -40
-108 -60 -94 -70 5 -5 22 -24 37 -44 l28 -37 -73 -22 c-40 -12 -91 -32 -113
-45 -40 -23 -92 -72 -84 -78 2 -2 19 -14 37 -26 17 -12 32 -28 32 -34 0 -7
-37 -32 -82 -57 -46 -25 -126 -77 -179 -117 -92 -69 -99 -77 -172 -198 -42
-70 -90 -164 -107 -208 -42 -112 -50 -126 -86 -154 -37 -28 -311 -100 -416
-110 -70 -6 -122 7 -132 33 -7 19 -31 18 -61 -2 -29 -19 -32 -7 -10 36 14 27
14 32 -1 55 -19 29 -25 30 -64 10 -37 -19 -39 -6 -10 43 22 35 19 72 -5 72 -8
0 -25 -4 -39 -10 -20 -7 -26 -6 -26 4 0 25 40 64 78 77 20 6 45 18 54 26 36
32 92 42 236 43 l143 0 30 67 c35 76 102 308 144 494 l28 125 -63 85 c-80 106
-110 174 -117 261 -3 37 -9 68 -13 68 -12 0 -100 -98 -100 -112 0 -7 -16 11
-35 41 -18 29 -36 55 -38 57 -2 2 -37 -8 -78 -22 -44 -15 -107 -28 -156 -31
-83 -6 -83 -6 -117 -48 -36 -43 -142 -122 -152 -113 -3 3 0 43 6 89 8 59 8
103 1 148 -6 35 -12 65 -14 67 -2 2 -21 -5 -42 -16 -65 -33 -65 -32 -65 89 0
63 -8 158 -20 223 -21 123 -37 157 -196 408 -29 47 -58 99 -64 116 -6 18 -39
54 -80 88 -84 70 -105 109 -97 183 6 53 6 53 -31 72 l-37 20 32 11 c24 9 33
19 39 43 3 18 12 44 19 58 12 22 11 27 -6 37 -31 19 -22 32 22 32 24 0 50 7
64 18 25 20 22 36 -18 80 l-20 22 34 0 c34 0 76 -21 91 -46 4 -6 28 -15 53
-18 38 -6 50 -13 69 -44 14 -20 34 -71 46 -112 11 -41 40 -135 62 -208 l42
-134 70 -68 c56 -55 143 -130 150 -130 0 0 1 20 2 44 0 26 10 59 22 81 27 45
28 45 -5 45 -29 0 -83 28 -120 63 -29 26 -29 33 1 41 28 7 82 50 96 77 9 15 4
21 -32 37 -29 13 -49 31 -63 56 l-20 37 32 27 c17 15 40 45 51 67 24 48 56 79
99 97 l32 14 -55 44 c-29 25 -54 48 -54 52 0 17 87 69 139 85 31 9 89 17 128
17 40 1 73 3 73 4 0 2 -9 15 -20 29 -32 41 -26 51 28 46 26 -2 74 0 107 5 92
15 156 13 213 -3z"/>
<path d="M8084 14250 c-143 -30 -224 -123 -224 -255 0 -81 14 -124 54 -172 76
-88 221 -125 496 -125 258 -1 536 41 745 112 224 76 410 106 505 80 88 -24
145 -126 121 -218 -12 -44 -66 -99 -130 -131 -152 -78 -507 -115 -793 -83 -97
11 -149 11 -300 0 -390 -28 -716 -13 -974 45 l-101 23 -17 -67 c-9 -37 -37
-105 -62 -151 -89 -166 -98 -190 -102 -260 -2 -38 -7 -68 -11 -68 -27 0 -111
33 -126 50 -10 11 -22 20 -26 20 -5 0 -8 -53 -7 -117 2 -132 -11 -180 -76
-282 l-34 -54 -15 29 c-8 16 -30 43 -47 59 -18 17 -36 39 -40 50 -6 14 -9 -1
-9 -46 -1 -36 -8 -88 -16 -117 -16 -54 -87 -167 -152 -242 -36 -42 -42 -58
-82 -225 -49 -204 -120 -430 -154 -490 l-23 -40 -164 -6 c-175 -6 -200 -11
-200 -39 0 -9 -9 -29 -20 -43 l-20 -25 41 5 41 6 -4 -39 c-3 -21 -8 -47 -13
-58 -7 -16 -5 -17 16 -10 13 4 35 8 49 8 21 1 25 -4 28 -32 2 -18 -3 -40 -10
-49 -12 -15 -7 -15 52 -9 35 4 134 25 219 46 175 45 199 60 227 144 32 98 63
155 212 397 82 134 186 307 231 384 90 152 90 151 65 280 l-6 30 524 154 c288
84 525 155 528 157 2 3 -8 28 -24 56 -28 49 -28 52 -11 65 11 7 22 13 27 13 4
0 36 -24 70 -53 45 -37 86 -88 143 -173 141 -213 273 -375 497 -610 l38 -40
-31 -109 c-38 -135 -85 -258 -139 -368 l-41 -84 -91 -7 c-50 -3 -122 -6 -160
-6 -81 0 -108 -11 -108 -45 0 -13 -4 -27 -10 -30 -20 -12 -10 -27 16 -22 38 7
55 -34 31 -75 l-17 -30 27 7 c16 5 39 9 53 9 23 1 25 -3 25 -43 l0 -43 50 6
c77 9 323 81 345 101 10 9 54 99 96 199 94 223 200 441 253 523 59 91 58 99
-8 142 -137 88 -170 195 -171 551 0 222 -14 363 -45 454 -9 26 -15 50 -12 52
2 2 64 11 138 20 169 19 261 38 374 75 105 35 144 57 203 113 64 60 86 108 86
186 0 172 -96 259 -295 268 -122 5 -207 -11 -430 -84 -290 -94 -488 -127 -774
-127 -142 -1 -194 3 -244 17 -119 33 -176 75 -201 151 -21 65 14 175 69 214
60 43 118 51 387 51 200 0 254 3 263 14 27 32 -11 38 -276 42 -142 2 -276 -1
-299 -6z"/>
<path d="M6475 14205 c-93 -40 -105 -42 -167 -37 -61 4 -68 3 -92 -21 -44 -44
-32 -119 28 -168 18 -15 18 -17 -17 -80 l-35 -64 104 -125 104 -124 0 -81 0
-80 42 -27 c37 -23 43 -33 57 -90 15 -60 18 -64 56 -77 55 -19 200 -18 247 2
34 14 38 20 50 77 11 56 16 64 55 88 l42 27 1 82 0 82 103 123 104 123 -35 63
-34 62 36 40 c46 51 50 107 10 147 -24 24 -30 25 -92 20 -62 -5 -73 -2 -170
39 -56 24 -106 44 -109 44 -3 0 -23 -20 -45 -45 -22 -25 -43 -45 -46 -45 -4 1
-23 21 -42 45 -19 25 -39 45 -45 44 -5 0 -55 -20 -110 -44z m500 -268 c-11 -8
-52 -32 -91 -55 l-70 -41 12 -108 c19 -158 23 -144 -56 -187 -70 -37 -70 -38
-70 -80 0 -36 4 -44 32 -61 20 -11 51 -19 80 -19 52 0 55 -3 34 -31 -11 -15
-22 -17 -66 -12 -29 4 -64 14 -77 22 -23 15 -27 15 -61 -1 -57 -27 -122 -31
-139 -9 -20 28 -17 32 30 31 26 -1 58 7 80 19 34 18 37 23 37 62 0 42 -2 44
-70 90 -38 27 -69 51 -70 56 0 4 56 7 125 7 l125 0 0 165 0 165 117 0 c101 0
115 -2 98 -13z"/>
<path d="M5421 14145 c-14 -8 -37 -11 -53 -8 -34 7 -35 0 -7 -38 25 -35 20
-55 -17 -69 -20 -8 -32 -7 -50 5 -24 15 -24 15 -24 -17 0 -27 7 -37 35 -56 19
-12 35 -29 35 -37 0 -25 -40 -57 -62 -52 -18 5 -20 2 -14 -26 4 -23 27 -52 80
-102 48 -45 84 -89 102 -125 15 -30 43 -80 64 -110 20 -30 101 -165 180 -300
154 -264 236 -400 283 -469 l30 -44 51 6 c28 3 85 16 126 29 68 22 75 26 72
49 -2 13 -4 76 -6 139 -3 144 -2 138 -29 112 -22 -21 -96 -52 -123 -52 -10 0
-14 14 -14 50 0 64 -21 125 -81 230 -27 47 -56 106 -64 130 -12 36 -28 55 -78
91 -94 70 -206 177 -226 218 -10 20 -44 121 -75 224 -31 103 -62 199 -68 212
-12 27 -30 30 -67 10z"/>
<path d="M8195 12729 c-27 -4 -60 -11 -73 -14 l-23 -6 21 -26 c24 -30 28 -78
6 -70 -30 12 -181 18 -196 8 -12 -8 -5 -24 43 -94 31 -46 96 -130 143 -187 86
-101 86 -102 82 -149 -5 -44 -158 -422 -182 -448 -7 -7 -68 -13 -172 -16 -173
-5 -204 -13 -204 -52 0 -13 -7 -31 -15 -39 -14 -14 -12 -15 22 -13 35 2 38 0
41 -25 2 -15 -2 -36 -8 -47 -10 -19 -8 -20 22 -14 18 3 37 6 42 7 14 2 24 -46
14 -73 -9 -24 -8 -24 44 -18 83 10 336 82 358 102 11 10 48 74 84 144 35 69
94 185 131 258 37 73 82 150 101 172 19 21 34 45 34 53 0 7 -11 35 -25 62 -14
27 -25 64 -25 81 0 42 25 125 61 198 16 33 29 64 29 68 0 4 -17 22 -37 41 -20
18 -53 50 -73 71 -35 37 -35 37 -115 36 -44 -1 -102 -5 -130 -10z"/>
</g>
</svg>
