<?xml version="1.0" standalone="no"?>
<!DOCTYPE svg PUBLIC "-//W3C//DTD SVG 20010904//EN"
 "http://www.w3.org/TR/2001/REC-SVG-20010904/DTD/svg10.dtd">
<svg version="1.0" xmlns="http://www.w3.org/2000/svg"
 width="2031.000000pt" height="2479.000000pt" viewBox="0 0 2031.000000 2479.000000"
 preserveAspectRatio="xMidYMid meet">
<metadata>
Created by potrace 1.13, written by Peter Selinger 2001-2015
</metadata>
<g transform="translate(0.000000,2479.000000) scale(0.100000,-0.100000)"
fill="#000000" stroke="none">
<path d="M6754 21777 c-2 -7 -3 -1005 -1 -2217 3 -2203 3 -2205 25 -2355 80
-556 249 -1080 526 -1635 271 -542 544 -940 889 -1296 504 -521 1197 -965
1860 -1193 l118 -40 92 30 c256 86 592 241 852 394 606 355 1097 798 1473
1330 259 364 531 881 703 1332 174 457 291 982 300 1348 2 61 2 1056 1 2213
l-2 2102 -3415 0 c-2785 0 -3417 -2 -3421 -13z m5272 -337 c126 -33 226 -92
330 -195 77 -76 98 -105 137 -185 54 -109 73 -175 82 -287 7 -78 8 -79 44
-100 143 -82 260 -233 321 -413 31 -92 39 -279 16 -383 -48 -215 -204 -412
-401 -507 -111 -53 -199 -73 -325 -73 -128 0 -218 20 -322 71 l-77 38 -65 -33
c-205 -104 -459 -103 -664 1 -267 136 -428 413 -409 706 8 121 25 183 81 296
54 109 152 219 251 284 l65 42 0 63 c0 176 111 400 259 523 193 161 431 215
677 152z m-3748 -111 c122 -13 261 -43 374 -80 l87 -28 58 20 c229 80 456 107
742 90 179 -11 402 -34 444 -47 16 -5 17 -56 17 -891 l0 -885 -26 6 c-51 13
-223 36 -340 46 -297 24 -521 4 -786 -72 l-108 -30 -92 26 c-109 31 -263 63
-368 75 -198 23 -554 2 -777 -45 l-33 -6 0 885 0 885 23 5 c45 12 276 39 392
46 182 12 286 12 393 0z m5150 -3019 c2 -493 -1 -805 -8 -899 -23 -301 -94
-640 -203 -981 -213 -660 -593 -1360 -997 -1835 -113 -133 -359 -378 -490
-487 -433 -363 -951 -668 -1440 -848 l-115 -42 -55 17 c-94 30 -352 141 -506
218 -668 335 -1228 791 -1646 1342 -170 224 -367 552 -523 870 -255 518 -409
995 -497 1543 -21 132 -22 169 -25 986 -2 467 -2 855 1 862 5 12 510 14 3253
12 l3248 -3 3 -755z"/>
<path d="M11740 21169 c-80 -15 -183 -74 -239 -135 -57 -62 -74 -91 -102 -172
-29 -83 -30 -82 59 -82 104 0 201 -22 297 -68 l80 -38 66 33 c89 45 205 73
301 73 90 0 91 0 59 93 -73 211 -298 339 -521 296z"/>
<path d="M11108 20352 c-117 -125 -157 -287 -108 -443 25 -82 54 -128 119
-194 100 -101 253 -151 387 -126 110 20 110 19 64 104 -45 83 -75 187 -85 297
l-7 75 -50 30 c-72 43 -186 160 -232 238 -21 37 -40 67 -41 67 -1 0 -22 -21
-47 -48z"/>
<path d="M12470 20337 c-43 -75 -155 -192 -231 -240 l-56 -36 -6 -83 c-7 -100
-36 -199 -85 -290 -20 -37 -34 -70 -31 -72 10 -10 125 -36 160 -36 312 0 535
305 440 602 -22 68 -95 178 -136 204 -18 12 -23 8 -55 -49z"/>
<path d="M8085 21054 c-59 -5 -206 -22 -253 -31 -19 -3 -40 -15 -49 -29 -14
-22 -14 -26 2 -50 19 -29 -1 -29 259 -3 145 14 220 7 351 -35 84 -27 115 -24
135 14 17 31 -3 56 -62 78 -111 41 -267 64 -383 56z"/>
<path d="M9205 21046 c-104 -17 -220 -54 -241 -77 -22 -25 -11 -67 21 -79 18
-7 43 -3 97 14 125 41 218 51 354 37 234 -24 243 -24 259 -11 22 18 19 67 -5
80 -58 31 -369 54 -485 36z"/>
<path d="M8025 20783 c-128 -15 -194 -25 -217 -34 -47 -19 -43 -82 7 -95 13
-3 57 0 97 7 40 8 143 14 228 13 143 0 161 -2 238 -27 97 -33 131 -32 149 3
26 52 -30 85 -202 121 -82 17 -214 23 -300 12z"/>
<path d="M9165 20773 c-38 -8 -99 -24 -135 -37 -52 -17 -67 -27 -74 -49 -8
-21 -6 -31 9 -48 23 -24 35 -23 179 15 118 31 212 34 399 10 121 -16 129 -15
147 1 27 24 25 61 -2 79 -28 18 -262 46 -373 45 -44 0 -111 -7 -150 -16z"/>
<path d="M7990 20515 c-8 -2 -55 -9 -103 -16 -74 -9 -90 -15 -103 -35 -9 -12
-13 -32 -10 -42 12 -35 46 -41 147 -26 197 31 369 20 502 -31 51 -20 64 -19
92 9 29 29 24 61 -15 81 -74 38 -184 58 -340 61 -85 1 -162 1 -170 -1z"/>
<path d="M9151 20505 c-86 -19 -152 -42 -179 -61 -30 -21 -28 -59 3 -80 25
-16 30 -16 113 9 137 42 208 49 341 37 64 -6 142 -15 174 -21 49 -8 63 -8 83
6 24 16 31 48 15 74 -25 39 -424 65 -550 36z"/>
<path d="M8000 20249 c-142 -15 -193 -27 -212 -50 -22 -27 -22 -31 1 -60 l18
-23 156 19 c186 21 285 17 410 -19 110 -33 132 -33 153 -1 26 40 0 69 -83 95
-151 47 -267 57 -443 39z"/>
<path d="M9230 20254 c-180 -34 -268 -66 -276 -100 -4 -17 0 -31 12 -45 22
-25 46 -23 188 15 106 28 192 32 326 16 191 -23 195 -23 213 -5 21 20 22 58 2
75 -30 25 -386 59 -465 44z"/>
<path d="M8715 18713 c-55 -8 -126 -12 -157 -9 -68 5 -74 -6 -33 -60 14 -18
25 -34 25 -36 0 -2 -33 -2 -72 0 -123 6 -246 -31 -323 -99 -35 -31 -44 -49
-25 -49 6 0 35 -20 66 -45 30 -25 62 -45 72 -45 9 -1 -4 -9 -30 -19 -72 -28
-102 -55 -137 -120 -17 -33 -48 -74 -68 -90 -34 -28 -35 -31 -23 -60 16 -40
73 -90 111 -98 16 -3 29 -9 29 -13 0 -24 -53 -78 -104 -106 l-59 -32 39 -36
c47 -43 113 -76 154 -76 l29 0 -24 -36 c-30 -45 -49 -108 -41 -140 4 -13 2
-24 -3 -24 -14 0 -179 140 -224 189 -47 52 -53 68 -133 334 -36 122 -75 239
-85 259 -24 47 -54 68 -100 68 -29 0 -45 8 -76 39 -30 30 -50 41 -86 46 -27 4
-50 5 -53 3 -2 -3 12 -22 31 -42 19 -21 35 -45 35 -55 0 -30 -52 -59 -104 -59
-46 0 -73 -10 -50 -19 6 -2 19 -10 30 -17 17 -13 17 -16 1 -52 -9 -22 -19 -56
-23 -76 -5 -29 -11 -38 -26 -38 -11 0 -28 -5 -39 -11 -19 -10 -17 -12 23 -32
35 -18 43 -26 40 -47 -13 -125 10 -178 119 -267 57 -46 78 -72 106 -128 20
-38 63 -113 97 -165 34 -52 92 -147 129 -210 63 -109 68 -123 88 -235 15 -86
22 -165 23 -277 1 -153 2 -158 21 -152 40 11 95 37 95 46 0 4 4 8 9 8 29 0 38
-238 14 -369 l-6 -33 59 37 c68 43 136 106 165 152 18 29 22 31 49 22 41 -15
145 3 264 44 l96 34 29 -51 c38 -66 60 -95 61 -78 0 18 110 132 127 132 9 0
13 -18 13 -67 1 -78 22 -147 70 -226 28 -47 52 -80 144 -202 20 -26 -129 -601
-199 -767 l-37 -88 -107 -2 c-58 -1 -123 -1 -144 0 -68 4 -159 -16 -208 -47
-25 -16 -62 -34 -81 -40 -40 -13 -82 -54 -97 -93 l-10 -27 34 15 c48 20 70 18
82 -8 8 -18 4 -31 -19 -67 -39 -63 -37 -76 9 -51 50 27 58 25 81 -11 20 -32
20 -32 0 -76 -11 -25 -18 -47 -15 -49 2 -3 21 5 41 17 l36 21 35 -30 c43 -38
97 -47 190 -32 96 15 421 98 455 115 46 24 87 80 110 152 36 109 73 183 165
332 83 135 89 142 183 213 98 74 158 113 285 182 l69 38 -27 28 c-15 16 -41
34 -57 41 l-29 12 28 29 c55 58 135 99 256 133 31 9 57 20 57 25 0 4 -20 31
-45 58 l-46 51 88 47 c126 69 204 86 296 65 36 -9 37 -8 37 21 0 33 -13 63
-42 94 l-19 22 65 22 c36 12 70 19 75 16 5 -4 25 -32 43 -64 40 -71 186 -264
266 -354 76 -84 84 -40 -83 -433 -38 -88 -69 -161 -71 -163 -1 -2 -89 -7 -196
-11 -200 -8 -228 -14 -283 -61 -11 -9 -41 -25 -67 -34 -49 -18 -82 -53 -93
-99 l-7 -26 38 20 c49 24 71 24 84 -1 9 -16 7 -27 -10 -50 -23 -32 -43 -90
-32 -90 4 0 21 9 37 20 39 26 59 25 74 -4 11 -19 10 -28 -2 -52 -8 -16 -18
-40 -22 -52 l-7 -24 41 24 c34 19 43 21 58 10 102 -72 124 -71 428 10 161 43
208 63 241 100 12 12 50 82 85 153 75 155 126 211 267 294 51 30 92 58 92 62
0 11 -59 59 -73 59 -17 0 43 58 93 90 25 15 71 36 103 45 31 9 57 18 57 19 0
12 -119 79 -147 83 -20 3 -37 13 -40 22 -2 9 -18 44 -35 78 -36 74 -34 112 13
234 47 123 45 122 115 35 33 -41 124 -144 201 -228 213 -232 197 -209 182
-271 -16 -70 -72 -238 -109 -331 -27 -68 -96 -214 -107 -226 -2 -2 -88 -7
-191 -10 -197 -7 -225 -13 -280 -64 -13 -11 -42 -30 -65 -41 -30 -14 -48 -32
-64 -64 -13 -25 -21 -46 -19 -48 2 -2 16 3 32 12 71 37 100 5 59 -66 -13 -24
-25 -52 -25 -62 0 -17 1 -17 28 1 50 36 68 36 90 1 17 -28 18 -34 6 -58 -8
-14 -14 -34 -14 -45 0 -17 1 -17 25 -2 32 21 38 20 81 -9 57 -38 119 -34 350
26 109 27 209 56 223 64 68 35 92 75 213 365 114 273 108 265 297 378 l94 56
-42 37 -42 38 53 42 c55 43 111 71 166 84 18 3 32 10 32 14 0 14 -125 81 -163
88 -25 4 -44 14 -54 30 -9 14 -39 39 -67 57 -65 42 -123 100 -147 148 -42 83
-50 149 -59 513 -7 299 -11 365 -30 449 -11 54 -19 100 -18 102 2 1 62 10 133
19 359 44 590 125 718 252 82 81 111 146 115 255 6 127 -22 212 -90 285 -87
91 -202 133 -367 133 -145 0 -245 -23 -576 -130 -303 -98 -535 -134 -880 -134
-251 -1 -309 8 -405 60 -88 48 -113 141 -64 239 46 92 104 105 477 105 l289 0
38 -32 c79 -68 268 -118 444 -118 91 0 243 19 331 41 l47 12 -48 26 c-42 23
-81 67 -69 79 2 2 27 -1 56 -8 74 -18 153 -7 255 34 109 44 190 60 269 52 l60
-5 -45 40 c-25 22 -70 52 -100 67 -50 25 -65 27 -167 27 l-112 0 30 23 c28 22
65 79 57 88 -2 2 -26 -4 -53 -12 -28 -8 -88 -18 -135 -21 -71 -4 -101 -1 -185
21 -124 32 -268 43 -350 26 -75 -15 -169 -58 -246 -110 l-59 -40 -241 12
c-269 13 -417 4 -530 -33 -82 -27 -116 -48 -168 -104 -99 -107 -125 -288 -62
-429 29 -67 104 -142 176 -176 295 -141 954 -110 1513 71 336 108 531 126 611
55 50 -45 67 -137 33 -188 -70 -107 -318 -178 -725 -206 -89 -7 -134 -5 -185
5 -111 23 -420 27 -665 9 -119 -9 -273 -16 -342 -16 -223 0 -535 34 -737 81
l-98 22 -34 69 -34 68 27 0 c14 0 44 9 67 19 42 19 114 77 114 92 0 5 -19 18
-42 30 -53 26 -108 77 -108 100 0 10 11 20 27 24 43 10 79 42 102 87 l20 42
-34 23 c-19 13 -47 49 -65 82 -40 74 -74 107 -135 130 -42 16 -46 19 -27 26
13 3 42 24 67 45 24 21 49 40 56 42 19 6 -8 41 -60 76 -63 44 -192 75 -286 70
l-72 -3 29 44 c15 25 28 49 28 53 0 5 -24 5 -52 2 -30 -3 -107 1 -174 10 -211
27 -326 -11 -386 -128 l-20 -39 -29 51 c-35 61 -95 100 -183 119 -72 15 -72
15 -201 -4z m2590 -283 c217 -10 242 -13 260 -31 20 -20 20 -20 0 -35 -16 -12
-68 -14 -320 -12 -265 3 -308 1 -372 -16 -140 -35 -198 -108 -198 -247 0 -66
4 -81 28 -118 37 -55 99 -94 200 -123 76 -21 99 -23 327 -23 361 1 577 35 903
141 313 102 388 118 547 118 117 0 143 -3 193 -23 87 -34 138 -77 172 -146 27
-55 30 -69 30 -160 0 -92 -2 -104 -30 -154 -16 -29 -50 -71 -75 -93 -62 -55
-225 -132 -343 -162 -104 -27 -318 -61 -454 -72 -88 -7 -92 -10 -73 -59 5 -14
19 -69 31 -123 18 -82 22 -149 29 -447 7 -308 10 -359 29 -429 12 -44 32 -98
45 -120 30 -51 113 -130 161 -153 58 -28 56 -49 -15 -166 -79 -131 -174 -327
-290 -597 -106 -249 -131 -295 -168 -314 -40 -20 -358 -104 -424 -112 l-58 -7
15 30 c10 19 12 38 6 58 -8 32 -22 35 -89 13 -42 -13 -48 -7 -27 26 13 19 15
36 10 62 l-6 36 -45 -7 -46 -6 22 29 c15 20 21 39 18 55 -8 42 26 50 244 57
109 3 200 8 203 11 2 3 31 61 64 130 63 133 121 291 166 457 l29 103 -41 42
c-109 114 -363 400 -402 452 -25 33 -64 85 -87 115 -23 31 -70 101 -105 155
-87 139 -121 182 -192 243 -82 71 -103 81 -125 58 -16 -16 -15 -20 20 -84 l37
-67 -597 -175 c-328 -95 -624 -182 -658 -192 l-61 -18 20 -89 c18 -78 19 -93
7 -122 -12 -29 -237 -406 -501 -839 -67 -109 -104 -184 -128 -253 -35 -102
-64 -148 -110 -171 -34 -17 -346 -93 -434 -105 -81 -11 -101 -7 -87 19 12 22
13 70 2 87 -6 10 -19 10 -60 -1 -56 -14 -74 -6 -49 22 15 17 20 39 18 80 -1
22 -4 22 -53 16 l-52 -7 27 32 c15 18 27 43 27 56 0 36 37 43 250 49 179 6
196 8 212 26 47 56 146 369 218 685 l41 179 48 52 c70 77 158 211 181 276 12
35 20 86 21 130 1 73 15 159 18 110 0 -13 27 -50 60 -85 32 -35 61 -70 63 -78
7 -17 24 2 68 78 63 106 73 153 72 316 -1 81 1 147 4 147 4 0 22 -13 40 -30
30 -26 115 -60 151 -60 9 0 13 18 13 65 0 84 18 134 97 279 36 65 80 163 98
217 18 55 35 102 38 105 3 3 45 -3 94 -15 317 -74 709 -97 1113 -66 255 20
422 19 567 -2 134 -20 247 -19 443 3 339 38 558 125 606 241 31 72 12 173 -43
234 -51 57 -116 74 -253 66 -120 -7 -204 -26 -410 -92 -364 -117 -663 -161
-1033 -152 -306 7 -429 36 -527 124 -72 65 -93 109 -98 214 -5 99 6 142 50
210 55 82 154 131 300 147 118 13 143 13 383 2z m-2250 -65 c25 -30 50 -55 55
-55 4 0 27 25 51 55 24 30 49 54 55 55 6 0 67 -25 135 -55 123 -54 124 -54
199 -48 92 7 129 -8 155 -63 25 -52 13 -96 -40 -153 -25 -27 -41 -52 -36 -57
4 -5 24 -39 44 -75 l36 -66 -129 -157 -130 -158 0 -97 0 -97 -52 -34 c-50 -33
-53 -38 -65 -98 -7 -34 -17 -71 -23 -82 -21 -38 -181 -61 -296 -41 -95 17
-110 29 -124 98 -6 32 -13 65 -16 74 -3 9 -29 33 -59 53 l-55 36 0 101 0 100
-126 150 -126 151 26 46 c63 111 62 102 17 150 -64 67 -67 137 -10 195 30 30
31 30 117 25 l87 -6 120 53 c66 29 125 54 131 54 6 1 33 -24 59 -54z m-1420
-77 c9 -13 32 -75 51 -138 20 -63 58 -186 85 -272 l50 -156 82 -82 c44 -44
125 -115 179 -157 84 -65 99 -82 113 -122 8 -25 42 -95 76 -156 87 -158 101
-198 103 -283 l1 -73 35 6 c51 10 116 40 144 68 l24 24 5 -161 c3 -89 8 -173
12 -187 6 -23 3 -28 -32 -41 -54 -22 -179 -56 -235 -63 l-47 -7 -33 46 c-52
74 -126 196 -343 567 -111 190 -220 372 -242 405 -23 32 -59 95 -81 139 -34
67 -52 89 -111 138 -40 32 -81 72 -91 90 -24 38 -27 89 -6 81 19 -7 72 21 80
43 5 13 -2 27 -27 49 -18 17 -39 33 -46 35 -16 6 -17 70 -2 96 9 16 10 16 11
1 0 -18 28 -38 54 -38 8 0 27 11 42 24 l28 23 -32 40 c-37 48 -29 62 32 56 30
-4 45 -1 55 11 19 23 47 20 66 -6z m3673 -1795 c32 -32 73 -71 90 -87 38 -35
39 -45 8 -99 -46 -81 -79 -187 -80 -262 -1 -60 3 -77 27 -116 37 -63 35 -89
-12 -138 -35 -36 -164 -273 -322 -591 -26 -52 -58 -106 -73 -119 -29 -28 -345
-116 -455 -127 -62 -7 -63 -7 -52 14 13 25 14 71 2 91 -7 11 -17 12 -54 2 -60
-15 -61 -15 -43 11 16 23 21 64 10 91 -4 11 -13 13 -42 6 -42 -9 -50 -6 -32
16 7 9 16 33 19 53 6 32 11 38 46 48 22 7 99 13 171 13 72 1 158 4 191 7 l59
6 107 252 c59 138 112 272 118 298 13 56 10 62 -75 158 -108 121 -276 354
-276 383 0 10 197 8 244 -2 l38 -9 -6 31 c-4 17 -18 44 -33 59 -20 21 -23 29
-12 33 46 17 169 33 266 34 l112 1 59 -57z"/>
<path d="M8756 18041 c13 -14 205 -121 215 -121 5 0 9 29 9 65 l0 65 -117 0
c-72 0 -113 -4 -107 -9z"/>
<path d="M9210 17835 l0 -204 -151 -3 -152 -3 87 -59 86 -60 0 -57 c0 -55 -1
-58 -37 -81 -29 -17 -53 -23 -96 -23 -52 0 -57 -2 -55 -20 5 -31 100 -33 167
-4 l51 21 45 -21 c56 -26 160 -30 169 -5 10 27 7 29 -52 29 -42 0 -67 6 -94
23 -37 23 -38 26 -38 80 l0 57 85 45 c49 26 85 51 85 60 -1 8 -7 69 -15 135
-22 181 -29 161 85 229 55 32 100 60 100 62 0 2 -61 4 -135 4 l-135 0 0 -205z"/>
<path d="M14177 12690 c-659 -63 -1083 -297 -1253 -690 -69 -158 -98 -381 -75
-577 31 -265 126 -458 317 -643 206 -200 480 -343 1034 -540 348 -124 510
-196 645 -285 197 -130 285 -281 272 -470 -23 -357 -317 -557 -852 -581 -512
-23 -1090 141 -1408 400 l-57 46 2 -342 3 -342 111 -47 c606 -256 1611 -300
2216 -98 562 188 848 561 848 1110 0 322 -106 583 -329 805 -235 235 -465 361
-1191 649 -498 198 -693 323 -779 497 -74 150 -41 341 79 458 86 83 223 142
415 176 123 21 461 30 595 15 288 -33 607 -138 847 -281 l98 -58 3 281 c1 154
1 282 -1 284 -12 11 -209 86 -298 112 -126 38 -353 84 -519 106 -143 19 -585
28 -723 15z"/>
<path d="M4370 10550 l0 -2030 280 0 280 0 2 1487 3 1486 65 -94 c36 -52 426
-607 865 -1234 440 -627 850 -1213 912 -1301 124 -179 193 -249 286 -293 100
-47 141 -51 512 -51 l345 0 0 2030 0 2030 -280 0 -280 0 -2 -1487 -3 -1487
-977 1395 c-706 1009 -992 1410 -1031 1445 -29 27 -78 61 -109 76 -107 53
-152 58 -525 58 l-343 0 0 -2030z"/>
<path d="M8733 11128 c4 -1568 1 -1481 56 -1696 88 -340 290 -612 583 -786
311 -184 712 -267 1223 -253 390 11 656 66 921 192 391 185 636 504 723 940
39 197 41 277 41 1687 l0 1368 -425 0 -425 0 0 -1404 c0 -1348 -1 -1409 -20
-1518 -67 -392 -273 -634 -620 -729 -76 -21 -106 -24 -285 -24 -233 0 -305 15
-460 90 -244 119 -382 322 -451 665 -16 77 -18 213 -21 1503 l-4 1417 -420 0
-420 0 4 -1452z"/>
<path d="M9320 7115 l0 -485 65 0 65 0 0 485 0 485 -65 0 -65 0 0 -485z"/>
<path d="M6630 7510 l0 -70 70 0 70 0 0 70 0 70 -70 0 -70 0 0 -70z"/>
<path d="M11740 7510 l0 -70 70 0 70 0 0 70 0 70 -70 0 -70 0 0 -70z"/>
<path d="M14500 7510 l0 -70 70 0 70 0 0 70 0 70 -70 0 -70 0 0 -70z"/>
<path d="M4460 7085 l0 -455 65 0 65 0 2 371 3 371 71 -128 c39 -71 131 -238
205 -371 l133 -243 83 0 83 0 0 455 0 456 -62 -3 -63 -3 -5 -364 c-4 -315 -7
-361 -18 -335 -8 16 -51 97 -96 179 -46 83 -129 234 -186 338 l-102 187 -89 0
-89 0 0 -455z"/>
<path d="M10010 7235 c0 -187 4 -324 11 -357 35 -162 141 -254 307 -265 143
-10 256 37 320 131 62 93 67 125 67 476 l0 315 -61 3 -62 3 -4 -313 c-4 -305
-5 -315 -29 -372 -16 -39 -37 -70 -62 -90 -34 -27 -48 -31 -112 -34 -92 -5
-134 9 -179 58 -57 63 -60 83 -63 433 l-4 317 -65 0 -64 0 0 -305z"/>
<path d="M6220 7462 l-45 -18 -3 -77 -3 -77 -74 0 -75 0 0 -50 0 -50 75 0 75
0 0 -207 c0 -120 5 -225 11 -248 15 -52 65 -100 120 -115 43 -12 147 -9 168 5
6 3 11 28 11 55 0 49 0 49 -26 40 -60 -23 -117 -5 -143 47 -7 14 -11 94 -11
222 l0 201 85 0 85 0 0 50 0 50 -85 0 -85 0 0 95 c0 108 0 107 -80 77z"/>
<path d="M14958 7462 l-48 -16 0 -78 0 -78 -75 0 -75 0 0 -50 0 -50 75 0 75 0
0 -225 c0 -255 6 -283 75 -325 41 -25 130 -36 190 -23 l40 9 3 53 c3 48 1 53
-15 46 -10 -4 -36 -9 -59 -12 -35 -5 -46 -1 -75 25 l-34 30 -3 211 -3 211 90
0 91 0 0 50 0 50 -90 0 -90 0 0 95 c0 106 3 102 -72 77z"/>
<path d="M5561 7300 c-50 -11 -135 -51 -133 -62 1 -5 2 -27 2 -51 l0 -44 61
31 c49 24 74 30 128 30 105 1 151 -35 167 -131 l6 -39 -64 4 c-174 11 -330
-53 -367 -151 -24 -63 -6 -163 37 -210 51 -57 188 -83 279 -53 27 9 66 32 86
50 l37 34 0 -39 0 -39 56 0 55 0 -3 258 c-3 241 -4 260 -25 297 -26 50 -58 80
-105 99 -47 20 -160 28 -217 16z m212 -360 c18 0 19 -5 14 -59 -9 -106 -61
-159 -165 -168 -49 -4 -62 -1 -92 19 -71 48 -62 144 18 183 42 20 133 35 176
29 16 -2 38 -4 49 -4z"/>
<path d="M7202 7300 c-66 -14 -142 -60 -183 -112 -51 -65 -73 -135 -72 -234 0
-69 5 -91 30 -145 36 -78 90 -133 163 -168 47 -22 68 -26 145 -26 79 1 97 4
148 30 109 54 177 161 185 290 10 160 -76 305 -206 349 -58 20 -155 27 -210
16z m131 -101 c120 -33 188 -196 141 -336 -36 -107 -111 -160 -212 -150 -94
10 -149 64 -177 174 -34 134 27 271 140 311 39 14 62 14 108 1z"/>
<path d="M8065 7301 c-56 -14 -106 -44 -135 -80 l-30 -36 0 53 0 52 -55 0 -55
0 0 -330 0 -330 60 0 60 0 0 188 c0 222 11 275 69 333 67 68 170 73 227 13 35
-39 44 -106 44 -329 l0 -205 61 0 60 0 -3 258 c-3 276 -5 289 -62 350 -47 52
-165 83 -241 63z"/>
<path d="M8753 7300 c-22 -5 -64 -19 -93 -31 -49 -21 -52 -24 -46 -52 3 -16 6
-40 6 -54 l0 -24 28 19 c43 31 138 55 189 48 87 -12 131 -54 136 -131 l2 -35
-110 -3 c-228 -8 -333 -87 -323 -242 3 -53 9 -71 34 -101 40 -50 88 -73 166
-81 87 -8 161 14 211 63 l37 36 0 -41 0 -41 55 0 55 0 0 233 c0 260 -8 312
-61 371 -16 19 -47 41 -69 50 -49 20 -161 28 -217 16z m208 -360 c15 0 19 -7
19 -37 0 -134 -109 -220 -230 -184 -100 30 -106 152 -11 197 41 19 132 34 175
28 16 -2 37 -4 47 -4z"/>
<path d="M11202 7296 c-54 -18 -91 -41 -119 -75 l-23 -26 0 48 0 47 -60 0 -60
0 0 -330 0 -330 59 0 59 0 4 208 c3 193 5 210 27 255 28 57 69 93 122 107 83
23 156 -17 178 -96 6 -22 11 -131 11 -256 l0 -218 66 0 66 0 -4 243 c-5 262
-13 305 -64 360 -58 63 -176 91 -262 63z"/>
<path d="M12950 7301 c-96 -22 -166 -76 -207 -159 -26 -53 -28 -65 -28 -182 0
-117 2 -129 28 -182 34 -69 87 -116 159 -143 72 -27 231 -28 306 -2 l52 19 0
60 c0 33 -3 58 -7 56 -136 -70 -246 -75 -326 -15 -46 35 -87 105 -87 149 l0
28 236 0 237 0 -6 74 c-7 84 -33 161 -71 211 -51 66 -190 108 -286 86z m146
-116 c40 -26 74 -80 77 -121 l2 -39 -169 -3 -169 -2 6 36 c15 92 100 160 186
149 25 -3 55 -12 67 -20z"/>
<path d="M13715 7298 c-45 -16 -85 -47 -106 -82 l-19 -31 0 53 0 52 -60 0 -60
0 0 -330 0 -330 64 0 65 0 3 208 c3 203 4 208 30 259 39 74 78 98 156 98 l62
0 0 51 c0 50 -1 52 -31 58 -42 8 -68 7 -104 -6z"/>
<path d="M14090 7301 c-79 -16 -140 -70 -160 -139 -30 -108 15 -174 170 -252
43 -22 86 -50 94 -62 32 -46 15 -101 -39 -124 -54 -22 -120 -16 -207 21 -16 6
-18 1 -18 -48 0 -55 0 -56 38 -69 20 -7 78 -13 127 -13 111 0 171 25 213 88
23 34 27 51 27 112 0 98 -23 128 -147 190 -114 57 -132 73 -132 121 0 68 79
98 180 69 31 -9 58 -14 60 -12 2 2 5 26 6 53 l3 49 -55 12 c-63 13 -109 14
-160 4z"/>
<path d="M6640 6960 l0 -330 60 0 60 0 0 330 0 330 -60 0 -60 0 0 -330z"/>
<path d="M11750 6960 l0 -330 60 0 60 0 0 330 0 330 -60 0 -60 0 0 -330z"/>
<path d="M12012 7278 c3 -7 56 -156 118 -330 l114 -318 75 0 76 0 49 138 c58
164 172 480 182 505 6 16 1 18 -57 15 l-63 -3 -23 -65 c-12 -36 -52 -154 -89
-263 -36 -109 -69 -195 -73 -192 -3 4 -45 122 -92 263 l-86 257 -68 3 c-52 2
-66 0 -63 -10z"/>
<path d="M14510 6960 l0 -330 60 0 60 0 0 330 0 330 -60 0 -60 0 0 -330z"/>
<path d="M15270 7282 c0 -5 54 -157 120 -337 66 -181 120 -338 120 -350 -1
-34 -36 -100 -69 -128 -26 -21 -43 -27 -82 -27 -41 0 -49 -3 -49 -19 0 -10 -3
-33 -6 -51 l-7 -32 85 3 c75 4 89 7 122 33 52 39 87 98 131 219 146 404 245
682 245 689 0 4 -27 8 -59 8 l-59 0 -87 -262 c-48 -145 -91 -266 -94 -270 -4
-5 -46 114 -94 262 l-88 270 -64 0 c-36 0 -65 -4 -65 -8z"/>
<path d="M7392 6065 c-88 -27 -123 -87 -130 -222 l-5 -93 -78 0 -79 0 0 -50 0
-50 80 0 80 0 0 -285 0 -285 60 0 60 0 0 285 0 285 90 0 90 0 0 50 0 50 -90 0
-90 0 0 58 c0 126 30 167 121 167 l59 0 0 46 c0 34 -5 49 -16 53 -26 10 -106
5 -152 -9z"/>
<path d="M8677 6033 c-4 -3 -7 -35 -7 -70 l0 -63 70 0 70 0 0 70 0 70 -63 0
c-35 0 -67 -3 -70 -7z"/>
<path d="M8155 5996 c-115 -36 -171 -101 -182 -210 -13 -123 36 -188 205 -274
138 -71 172 -102 179 -165 9 -80 -38 -137 -131 -158 -45 -10 -63 -9 -140 11
-48 12 -89 20 -91 18 -2 -1 -5 -27 -6 -57 l-4 -54 40 -14 c22 -8 79 -17 126
-20 203 -13 333 79 347 243 10 134 -43 208 -220 300 -119 62 -168 107 -168
155 0 46 27 89 68 106 47 21 153 20 211 -1 24 -9 45 -15 47 -14 1 2 7 28 12
58 12 65 12 64 -73 79 -80 14 -170 13 -220 -3z"/>
<path d="M6615 5760 c-102 -15 -188 -78 -238 -174 -29 -57 -31 -68 -32 -166 0
-99 2 -109 32 -166 36 -69 95 -127 162 -158 37 -17 65 -21 141 -21 84 0 101 3
146 27 137 72 209 218 184 375 -32 201 -190 313 -395 283z m162 -126 c155 -90
133 -400 -33 -454 -60 -20 -138 -8 -182 27 -108 87 -123 283 -30 389 68 77
155 91 245 38z"/>
<path d="M9313 5760 c-64 -13 -114 -44 -146 -90 -17 -24 -17 -24 -17 28 l0 52
-60 0 -60 0 0 -335 0 -335 59 0 59 0 4 208 c3 200 4 209 30 264 45 96 137 137
222 99 76 -33 80 -49 86 -326 l5 -240 60 0 60 0 0 235 c0 264 -7 305 -61 368
-52 61 -150 90 -241 72z"/>
<path d="M10020 5759 c-97 -19 -190 -111 -222 -219 -19 -66 -17 -204 5 -267
23 -65 84 -135 143 -163 93 -45 242 -23 318 48 l28 27 -4 -76 c-6 -96 -34
-150 -98 -187 -61 -36 -163 -36 -269 2 -41 14 -75 25 -76 23 -1 -1 -5 -26 -8
-54 l-6 -53 57 -16 c170 -50 370 -25 445 54 14 15 36 47 49 72 23 45 23 49 26
423 l3 377 -56 0 -55 0 0 -47 0 -48 -30 37 c-47 57 -154 86 -250 67z m162
-115 c37 -19 77 -74 94 -130 44 -146 -19 -292 -139 -325 -125 -33 -240 100
-224 259 6 58 45 148 76 176 49 44 130 53 193 20z"/>
<path d="M10802 5759 c-63 -11 -147 -49 -146 -66 1 -7 2 -30 3 -51 l1 -39 60
30 c48 24 73 30 127 30 109 1 161 -40 166 -131 l2 -37 -55 3 c-177 8 -326 -51
-366 -145 -17 -38 -18 -120 -3 -160 28 -74 116 -123 223 -123 71 0 118 15 171
55 l45 35 0 -40 0 -40 55 0 55 0 0 238 c0 278 -8 324 -69 382 -56 54 -164 77
-269 59z m215 -420 c-6 -74 -36 -122 -93 -149 -135 -66 -278 49 -186 150 38
43 92 59 196 60 l89 0 -6 -61z"/>
<path d="M11639 5760 c-53 -9 -93 -28 -138 -66 l-31 -26 0 41 0 41 -60 0 -60
0 0 -470 0 -470 60 0 60 0 0 182 0 182 32 -33 c54 -55 83 -66 183 -66 68 0 99
5 127 19 112 55 177 199 165 367 -14 208 -151 329 -338 299z m113 -116 c94
-49 127 -239 64 -369 -32 -65 -72 -96 -131 -102 -130 -15 -227 111 -212 274 7
73 45 153 87 183 56 40 131 46 192 14z"/>
<path d="M12377 5760 c-113 -20 -196 -84 -246 -190 -22 -47 -26 -69 -26 -150
0 -82 4 -103 26 -151 57 -122 153 -188 284 -197 158 -10 287 73 342 220 23 64
21 200 -4 264 -59 152 -208 232 -376 204z m153 -119 c80 -40 132 -173 111
-280 -31 -154 -159 -230 -287 -172 -111 51 -157 227 -92 356 55 110 163 149
268 96z"/>
<path d="M13195 5761 c-45 -11 -69 -27 -104 -66 l-31 -36 0 46 0 45 -60 0 -60
0 0 -335 0 -335 59 0 59 0 4 198 c5 217 18 275 75 334 32 33 92 52 140 43 l33
-6 0 56 c0 50 -2 55 -22 55 -13 0 -32 2 -43 4 -11 3 -33 1 -50 -3z"/>
<path d="M13658 5760 c-156 -27 -252 -156 -251 -340 1 -139 48 -242 139 -300
85 -54 230 -66 348 -30 l66 21 0 59 c0 59 -6 70 -26 50 -19 -19 -128 -50 -176
-50 -86 0 -159 45 -199 122 -10 21 -19 51 -19 68 l0 30 235 0 235 0 0 38 c-1
76 -29 175 -66 229 -58 84 -166 123 -286 103z m95 -99 c22 -5 50 -20 64 -33
30 -27 62 -93 63 -125 0 -23 0 -23 -170 -23 -168 0 -170 0 -170 22 0 28 35
100 60 123 18 16 83 44 105 44 6 0 27 -3 48 -8z"/>
<path d="M8680 5415 l0 -335 60 0 60 0 0 335 0 335 -60 0 -60 0 0 -335z"/>
</g>
</svg>
