<?xml version="1.0" standalone="no"?>
<!DOCTYPE svg PUBLIC "-//W3C//DTD SVG 20010904//EN"
 "http://www.w3.org/TR/2001/REC-SVG-20010904/DTD/svg10.dtd">
<svg version="1.0" xmlns="http://www.w3.org/2000/svg"
 width="887.000000pt" height="394.000000pt" viewBox="0 0 887.000000 394.000000"
 preserveAspectRatio="xMidYMid meet">
<metadata>
Created by potrace 1.13, written by Peter Selinger 2001-2015
</metadata>
<g transform="translate(0.000000,394.000000) scale(0.100000,-0.100000)"
fill="#000000" stroke="none">
<path d="M5 1970 c0 -1086 1 -1531 2 -987 2 543 2 1431 0 1975 -1 543 -2 98
-2 -988z"/>
<path d="M80 1970 l0 -1970 4395 0 4395 0 0 1970 0 1970 -4395 0 -4395 0 0
-1970z m2700 1936 c219 -37 335 -91 456 -211 132 -131 193 -282 194 -476 0
-292 -171 -513 -480 -617 l-78 -27 333 -470 c375 -528 437 -603 520 -634 31
-12 67 -21 80 -21 22 0 25 -4 25 -40 l0 -40 -408 0 -409 0 -409 580 -409 579
-83 1 -84 0 5 -452 c2 -302 8 -465 15 -488 15 -44 64 -94 116 -115 22 -9 82
-19 133 -22 l93 -6 0 -38 0 -39 -660 0 -660 0 0 39 0 38 95 6 c152 9 223 55
245 160 7 37 10 359 8 1072 -3 941 -4 1022 -20 1051 -41 75 -128 114 -255 114
l-73 0 0 41 0 40 808 -4 c687 -4 821 -7 902 -21z m2333 -433 c107 -252 266
-626 353 -830 88 -205 161 -373 164 -373 3 0 158 374 345 830 l340 830 528 0
527 0 0 -40 0 -40 -89 0 c-101 0 -161 -17 -204 -58 -67 -63 -62 22 -62 -1142
0 -986 1 -1057 17 -1087 41 -74 131 -113 260 -113 l78 0 0 -40 0 -40 -675 0
-675 0 0 39 0 39 103 4 c106 4 146 17 195 62 60 54 57 -16 59 1116 l3 1035
-213 -505 c-117 -278 -334 -794 -482 -1148 l-270 -643 -29 3 c-30 3 -34 13
-329 698 -164 382 -386 898 -493 1145 l-194 450 2 -1000 c3 -1120 -3 -1031 77
-1118 54 -58 123 -88 223 -95 l78 -5 0 -38 0 -39 -445 0 -445 0 0 39 0 38 73
5 c132 9 222 68 263 174 18 47 19 92 19 1054 0 553 -3 1017 -7 1032 -11 39
-55 86 -102 110 -32 17 -64 23 -143 26 l-103 4 0 39 0 39 529 0 529 0 195
-457z m3737 418 l0 -39 -102 -4 c-81 -3 -112 -9 -145 -26 -59 -31 -92 -78
-103 -148 -13 -78 -13 -1970 0 -2048 19 -117 92 -168 253 -174 l97 -4 0 -39 0
-39 -675 0 -675 0 0 40 0 40 83 0 c137 0 212 33 253 112 30 58 35 262 31 1198
-3 678 -7 925 -16 952 -6 20 -25 50 -41 66 -51 52 -95 66 -207 70 l-103 4 0
39 0 39 675 0 675 0 0 -39z m0 -2681 l0 -40 -3890 0 -3890 0 0 40 0 40 3890 0
3890 0 0 -40z m-7127 -217 c4 -58 7 -130 7 -160 l0 -53 -50 0 c-47 0 -50 2
-50 25 0 24 -3 25 -60 25 -55 0 -62 -2 -72 -25 -10 -22 -17 -25 -65 -25 l-53
0 92 128 c150 209 133 192 193 192 l52 0 6 -107z m386 100 c0 -5 -24 -75 -53
-158 l-52 -150 -43 -3 c-36 -3 -43 -1 -38 12 6 14 4 14 -18 0 -30 -20 -88 -22
-109 -5 -37 31 -6 156 49 199 38 30 89 38 118 19 24 -15 24 -15 41 39 l17 54
45 0 c24 0 44 -3 43 -7z m2393 -10 c45 -41 7 -118 -80 -159 -1 0 4 -14 12 -30
8 -16 17 -48 21 -71 l7 -43 -56 0 c-53 0 -56 2 -62 28 -20 91 -26 103 -41 100
-11 -2 -24 -26 -37 -66 l-20 -62 -48 0 c-26 0 -48 3 -48 8 0 4 23 76 51 160
l52 152 115 0 c93 0 119 -3 134 -17z m579 -63 l-28 -79 27 19 c15 10 33 26 40
35 8 10 30 15 69 15 l56 -1 -23 -19 c-13 -11 -35 -28 -50 -39 -26 -19 -26 -19
-14 -80 7 -34 15 -68 19 -76 4 -12 -5 -15 -45 -15 -53 0 -62 10 -62 68 0 12
-4 22 -8 22 -13 0 -49 -43 -57 -67 -5 -20 -13 -23 -52 -23 -32 0 -44 4 -40 13
2 6 26 78 53 160 l48 147 48 0 47 0 -28 -80z m524 -12 c-8 -106 -10 -106 65
20 l42 72 65 0 c47 0 64 -3 61 -12 -2 -7 -25 -79 -53 -160 l-49 -148 -42 0
-42 0 33 93 c52 147 50 148 -25 25 -69 -115 -72 -118 -106 -118 l-36 0 6 108
6 107 -37 -107 -37 -108 -43 0 -42 0 54 156 c30 86 55 158 55 160 0 2 30 4 66
4 l66 0 -7 -92z m2946 51 c-15 -44 -14 -49 9 -49 23 0 23 0 10 -34 -7 -18 -17
-26 -34 -26 -20 0 -27 -8 -40 -47 -20 -60 -20 -63 5 -63 18 0 20 -4 14 -27 -9
-36 -6 -34 -59 -36 -30 -1 -51 3 -62 14 -15 16 -15 21 0 73 9 30 19 62 22 71
4 9 0 15 -9 15 -13 0 -14 5 -6 30 7 18 18 30 29 30 10 0 20 10 24 24 4 16 20
30 53 43 27 11 50 19 52 17 2 -2 -2 -17 -8 -35z m-5941 -52 c35 -18 36 -40 4
-139 l-28 -88 -37 0 c-21 0 -39 5 -41 11 -3 9 -10 9 -27 0 -13 -7 -44 -13 -69
-14 -72 -1 -90 45 -40 100 14 15 46 27 99 39 49 10 79 22 79 30 0 22 -19 26
-52 10 -34 -17 -75 -20 -96 -8 -16 11 24 50 64 62 43 13 116 11 144 -3z m311
3 c26 -14 24 -48 -8 -147 l-27 -83 -43 0 c-24 0 -43 4 -43 8 0 5 9 35 20 67
25 73 25 95 2 95 -27 0 -46 -27 -72 -102 l-24 -68 -44 0 c-31 0 -43 4 -39 13
2 6 19 58 38 115 l33 102 43 0 c33 0 41 -3 37 -14 -4 -11 3 -10 32 5 43 21 67
24 95 9z m288 -5 c24 -12 47 -52 37 -62 -2 -2 -20 -7 -40 -10 -27 -4 -42 -1
-56 12 -23 21 -52 13 -80 -22 -41 -52 -12 -108 41 -78 45 26 50 28 81 19 l31
-9 -33 -32 c-53 -51 -166 -63 -215 -23 -18 15 -20 67 -4 107 33 87 159 139
238 98z m462 5 c26 -14 24 -48 -8 -147 l-27 -83 -43 0 c-24 0 -43 4 -43 8 0 5
9 35 20 67 25 73 25 95 2 95 -27 0 -46 -27 -72 -102 l-24 -68 -44 0 c-31 0
-43 4 -39 13 2 6 19 58 38 115 l33 102 43 0 c33 0 41 -3 37 -14 -4 -11 3 -10
32 5 43 21 67 24 95 9z m228 -9 c16 -16 20 -17 25 -5 3 9 20 14 46 14 22 0 40
-2 40 -4 0 -14 -84 -243 -95 -259 -29 -42 -67 -57 -142 -57 -78 0 -107 15
-101 54 4 28 76 36 95 11 17 -25 61 -12 74 22 12 32 7 38 -19 24 -52 -28 -112
3 -112 57 0 15 10 48 23 72 39 78 123 114 166 71z m1002 1 c34 -28 19 -52 -31
-52 -22 0 -40 5 -40 11 0 14 -52 7 -57 -8 -3 -7 8 -15 24 -18 103 -22 116 -35
90 -89 -22 -48 -66 -68 -146 -68 -55 0 -67 3 -83 22 -26 32 -18 45 31 48 32 2
46 -1 56 -14 11 -16 17 -16 39 -6 45 20 35 32 -42 47 -45 9 -67 43 -50 80 26
57 159 86 209 47z m1159 5 c35 -18 36 -40 4 -139 l-28 -88 -37 0 c-21 0 -39 5
-41 11 -3 9 -10 9 -27 0 -13 -7 -44 -13 -69 -14 -72 -1 -90 45 -40 100 14 15
46 27 99 39 49 10 79 22 79 30 0 22 -19 26 -52 10 -34 -17 -75 -20 -96 -8 -16
11 24 50 64 62 43 13 116 11 144 -3z m311 3 c26 -14 24 -48 -8 -147 l-27 -83
-43 0 c-24 0 -43 4 -43 8 0 5 9 35 20 67 25 73 25 95 2 95 -27 0 -46 -27 -72
-102 l-24 -68 -44 0 c-31 0 -43 4 -39 13 2 6 19 58 38 115 l33 102 43 0 c33 0
41 -3 37 -14 -4 -11 3 -10 32 5 43 21 67 24 95 9z m289 -3 c35 -18 36 -40 4
-139 l-28 -88 -37 0 c-21 0 -39 5 -41 11 -3 9 -10 9 -27 0 -13 -7 -44 -13 -69
-14 -72 -1 -90 45 -40 100 14 15 46 27 99 39 49 10 79 22 79 30 0 22 -19 26
-52 10 -34 -17 -75 -20 -96 -8 -16 11 24 50 64 62 43 13 116 11 144 -3z m249
-6 c16 -16 20 -17 25 -5 3 9 20 14 46 14 22 0 40 -2 40 -4 0 -14 -84 -243 -95
-259 -29 -42 -67 -57 -142 -57 -78 0 -107 15 -101 54 4 28 76 36 95 11 17 -25
61 -12 74 22 12 32 7 38 -19 24 -52 -28 -112 3 -112 57 0 15 10 48 23 72 39
78 123 114 166 71z m371 -6 c13 -12 20 -31 20 -56 0 -67 -2 -69 -102 -69 -80
0 -89 -2 -86 -17 4 -22 34 -29 62 -14 13 8 35 9 59 4 l38 -8 -30 -23 c-70 -51
-195 -46 -215 9 -22 63 23 145 99 181 49 23 126 19 155 -7z m308 7 c17 -17 19
-17 47 0 55 33 115 17 115 -29 0 -15 -12 -64 -27 -110 l-27 -83 -43 0 c-24 0
-43 4 -43 8 0 5 9 35 20 67 23 68 25 95 7 95 -27 0 -48 -27 -70 -95 l-24 -70
-46 -3 -46 -3 25 73 c25 74 25 98 1 98 -23 0 -43 -31 -67 -102 l-22 -68 -45 0
c-32 0 -44 4 -40 13 2 6 19 58 38 115 l33 102 43 0 c34 0 41 -3 36 -16 -4 -12
1 -11 28 5 42 26 83 27 107 3z m442 -7 c13 -12 20 -31 20 -56 0 -67 -2 -69
-102 -69 -80 0 -89 -2 -86 -17 4 -22 34 -29 62 -14 13 8 35 9 59 4 l38 -8 -30
-23 c-70 -51 -195 -46 -215 9 -22 63 23 145 99 181 49 23 126 19 155 -7z m301
15 c26 -14 24 -48 -8 -147 l-27 -83 -43 0 c-24 0 -43 4 -43 8 0 5 9 35 20 67
25 73 25 95 2 95 -27 0 -46 -27 -72 -102 l-24 -68 -44 0 c-31 0 -43 4 -39 13
2 6 19 58 38 115 l33 102 43 0 c33 0 41 -3 37 -14 -4 -11 3 -10 32 5 43 21 67
24 95 9z m-6129 -67 l3 -67 44 67 c43 66 44 67 88 67 l45 0 -29 -38 c-148
-197 -143 -192 -184 -192 -44 0 -43 -1 -54 148 l-5 82 44 0 45 0 3 -67z m1173
-30 c-48 -143 -41 -133 -90 -133 l-44 0 35 103 c19 56 36 108 39 115 2 7 22
12 49 12 l45 0 -34 -97z m1250 0 c-48 -143 -41 -133 -90 -133 l-44 0 35 103
c19 56 36 108 39 115 2 7 22 12 49 12 l45 0 -34 -97z m-2556 -352 c21 -13 -4
-51 -34 -51 -14 0 -25 -2 -25 -4 0 -2 -3 -11 -6 -20 -4 -11 0 -16 14 -16 19 0
20 -3 11 -30 -8 -21 -18 -30 -33 -30 -19 0 -26 -13 -50 -85 l-27 -85 -45 0
c-24 0 -44 1 -44 3 0 2 11 37 25 77 29 86 30 90 11 90 -12 0 -13 6 -5 30 7 19
18 30 30 30 10 0 19 6 19 14 0 19 39 66 64 76 28 11 78 12 95 1z m892 -17 c10
-9 19 -30 19 -46 0 -27 -2 -28 -50 -28 -37 0 -50 4 -50 14 0 20 -35 29 -60 16
-31 -17 -19 -33 36 -48 69 -20 97 -48 90 -91 -13 -85 -128 -145 -231 -121 -47
11 -65 32 -65 77 0 33 0 33 49 33 44 0 50 -3 53 -22 6 -44 88 -32 88 13 0 13
-15 22 -55 34 -64 18 -91 49 -81 91 9 34 59 81 100 94 45 14 134 5 157 -16z
m3258 9 c0 -5 -24 -75 -53 -158 l-52 -150 -43 -3 c-36 -3 -43 -1 -38 12 6 14
4 14 -18 0 -30 -20 -88 -22 -109 -5 -37 31 -6 156 49 199 38 30 89 38 118 19
24 -15 24 -15 41 39 l17 54 45 0 c24 0 44 -3 43 -7z m452 -3 c28 -16 25 -70
-6 -104 -13 -14 -30 -26 -36 -26 -7 0 -2 -11 10 -24 29 -30 22 -72 -17 -109
-41 -39 -73 -47 -191 -47 l-107 0 54 160 54 160 110 0 c60 0 118 -5 129 -10z
m1518 3 c0 -5 -24 -75 -53 -158 l-52 -150 -43 -3 c-36 -3 -43 -1 -38 12 6 14
4 14 -18 0 -30 -20 -88 -22 -109 -5 -37 31 -6 156 49 199 38 30 89 38 118 19
24 -15 24 -15 41 39 l17 54 45 0 c24 0 44 -3 43 -7z m-5927 -103 c23 -29 23
-71 -2 -120 -45 -88 -174 -124 -237 -67 -36 33 -27 105 20 156 57 62 180 80
219 31z m262 24 c23 -9 -28 -74 -53 -67 -27 7 -57 -31 -82 -104 l-21 -63 -45
0 c-32 0 -44 4 -40 13 2 6 19 58 38 115 l33 102 44 0 c36 0 43 -3 38 -16 -4
-11 1 -10 20 5 28 22 42 25 68 15z m867 -4 c26 -14 24 -48 -8 -147 l-27 -83
-43 0 c-24 0 -43 4 -43 8 0 5 9 35 20 67 25 73 25 95 2 95 -27 0 -46 -27 -72
-102 l-24 -68 -44 0 c-31 0 -43 4 -39 13 2 6 19 58 38 115 l33 102 43 0 c33 0
41 -3 37 -14 -4 -11 3 -10 32 5 43 21 67 24 95 9z m228 -9 c16 -16 20 -17 25
-5 3 9 20 14 46 14 22 0 40 -2 40 -4 0 -14 -84 -243 -95 -259 -29 -42 -67 -57
-142 -57 -78 0 -107 15 -101 54 4 28 76 36 95 11 17 -25 61 -12 74 22 12 32 7
38 -19 24 -52 -28 -112 3 -112 57 0 15 10 48 23 72 39 78 123 114 166 71z
m361 6 c35 -18 36 -40 4 -139 l-28 -88 -37 0 c-21 0 -39 5 -41 11 -3 9 -10 9
-27 0 -13 -7 -44 -13 -69 -14 -72 -1 -90 45 -40 100 14 15 46 27 99 39 49 10
79 22 79 30 0 22 -19 26 -52 10 -34 -17 -75 -20 -96 -8 -16 11 24 50 64 62 43
13 116 11 144 -3z m308 -3 c48 -33 14 -163 -54 -205 -37 -23 -96 -28 -118 -10
-10 8 -16 -1 -30 -44 l-17 -55 -46 0 c-32 0 -44 4 -40 13 2 6 26 78 53 160
l48 147 43 0 c36 0 41 -3 36 -17 -6 -17 -5 -17 13 -2 38 32 78 37 112 13z
m304 -14 c23 -29 23 -71 -2 -120 -45 -88 -174 -124 -237 -67 -36 33 -27 105
20 156 57 62 180 80 219 31z m262 24 c23 -9 -28 -74 -53 -67 -27 7 -57 -31
-82 -104 l-21 -63 -45 0 c-32 0 -44 4 -40 13 2 6 19 58 38 115 l33 102 44 0
c36 0 43 -3 38 -16 -4 -11 1 -10 20 5 28 22 42 25 68 15z m246 -19 c13 -12 20
-31 20 -56 0 -67 -2 -69 -102 -69 -80 0 -89 -2 -86 -17 4 -22 34 -29 62 -14
13 8 35 9 59 4 l38 -8 -30 -23 c-70 -51 -195 -46 -215 9 -22 63 23 145 99 181
49 23 126 19 155 -7z m440 12 c35 -18 36 -40 4 -139 l-28 -88 -37 0 c-21 0
-39 5 -41 11 -3 9 -10 9 -27 0 -13 -7 -44 -13 -69 -14 -72 -1 -90 45 -40 100
14 15 46 27 99 39 49 10 79 22 79 30 0 22 -19 26 -52 10 -34 -17 -75 -20 -96
-8 -16 11 24 50 64 62 43 13 116 11 144 -3z m311 3 c26 -14 24 -48 -8 -147
l-27 -83 -43 0 c-24 0 -43 4 -43 8 0 5 9 35 20 67 25 73 25 95 2 95 -27 0 -46
-27 -72 -102 l-24 -68 -44 0 c-31 0 -43 4 -39 13 2 6 19 58 38 115 l33 102 43
0 c33 0 41 -3 37 -14 -4 -11 3 -10 32 5 43 21 67 24 95 9z m1099 -15 c13 -12
20 -31 20 -56 0 -67 -2 -69 -102 -69 -80 0 -89 -2 -86 -17 4 -22 34 -29 62
-14 13 8 35 9 59 4 l38 -8 -30 -23 c-70 -51 -195 -46 -215 9 -22 63 23 145 99
181 49 23 126 19 155 -7z m572 -5 c23 -29 23 -71 -2 -120 -45 -88 -174 -124
-237 -67 -36 33 -27 105 20 156 57 62 180 80 219 31z m299 20 c26 -14 24 -48
-8 -147 l-27 -83 -43 0 c-24 0 -43 4 -43 8 0 5 9 35 20 67 25 73 25 95 2 95
-27 0 -46 -27 -72 -102 l-24 -68 -44 0 c-31 0 -43 4 -39 13 2 6 19 58 38 115
l33 102 43 0 c33 0 41 -3 37 -14 -4 -11 3 -10 32 5 43 21 67 24 95 9z m-4726
-97 c-48 -143 -41 -133 -90 -133 l-44 0 35 103 c19 56 36 108 39 115 2 7 22
12 49 12 l45 0 -34 -97z m4017 48 c-7 -100 -1 -103 48 -24 45 72 45 73 88 73
32 0 41 -3 36 -12 -50 -82 -208 -287 -229 -296 -14 -7 -49 -12 -77 -12 -42 0
-49 3 -44 16 3 9 6 22 6 30 0 10 12 14 39 14 65 0 66 2 45 208 l-5 52 48 0 48
0 -3 -49z m1738 -366 l0 -45 -3890 0 -3890 0 0 45 0 45 3890 0 3890 0 0 -45z"/>
<path d="M2030 3235 l0 -558 178 6 c266 8 369 41 465 147 96 107 132 233 124
430 -6 135 -21 202 -62 286 -52 107 -160 186 -297 219 -36 9 -137 18 -235 22
l-173 6 0 -558z"/>
</g>
</svg>
